<mxfile host="app.diagrams.net" modified="2024-02-08T21:16:12.514Z" agent="Mozilla/5.0 (Windows NT 10.0; Win64; x64) AppleWebKit/537.36 (KHTML, like Gecko) Chrome/121.0.0.0 Safari/537.36" etag="P_r7z9J1LY8GwKQ4dj8w" version="21.3.7" type="device">
  <diagram name="Pagina-1" id="A9a9eT0Hqg1J_yfQu_P6">
    <mxGraphModel dx="3411" dy="3289" grid="1" gridSize="10" guides="1" tooltips="1" connect="1" arrows="1" fold="1" page="1" pageScale="1" pageWidth="827" pageHeight="1169" math="0" shadow="0">
      <root>
        <mxCell id="0" />
        <mxCell id="1" parent="0" />
        <mxCell id="ThVksF6ZGvTpuZDphex1-1" value="" style="shape=image;verticalLabelPosition=bottom;labelBackgroundColor=default;verticalAlign=top;aspect=fixed;imageAspect=0;image=data:image/png,iVBORw0KGgoAAAANSUhEUgAAAgAAAAIACAYAAAD0eNT6AAAAAXNSR0IArs4c6QAAIABJREFUeAHtfQm0XFWZddGdqnrv5SVAUBGCrSAOJO9WEkISZt67FRICJBCTCAQZZAigMomINkMGE8IYCAko2KgIToi2A0pLC9gOiICGhG7BtpnEBhRaWP+va/2spjn/OiFlF0Xd+u69+56657u1s1ZWvbrnfvecs7/v23vXXCrxHxEgAkSACBABIkAEiAARIAJEgAgQASJABIgAESACRIAIEAEiQASIABEgAkSACBABIkAEiAARIAJEgAgQASJABIgAESACRIAIEAEiQASIABEgAkSACBABIkAEiAARIAJEgAgQASJABIgAESACRIAIEAEiQASIABEgAkSACBABIkAEiAARIAJEgAgQASJABIgAESACRIAIEAEiQASIABEgAkSACBABIkAEiAARIAJEgAgQASJABIgAESACRIAIEAEiQASIABEgAkSACBABIkAEHCNQCWYG5Vp9bSUI/7UShH+uBKHhf2LAGmANpKwByyH/Wh4Kr67Uhocc0xcvTwSIQCoEdp1TrQ6F11WC8H9SNjqNAs0Sa4A10KkGXikHI+tLExZVUnEUg4gAEXCAwK5zquVaeDeFn4/yWAOsAdc1UA7Cu2gCHPA4L0kE0iBQrYWfdt30vD6FhTXAGmjUQDkI16XhKsYQASKQIQL2NX8+7U9ibhAzb1kLXaqBVyqTRiZmSGW8FBEgAkkR2PKGv06v23GMr+uyBlgDmddAOQjXJOUrnk8EiECGCFSC8N+65PgzJxCum49WWQOqa+DhDKmMlyICRCApApUg/L8kUdUkSmPFR+daa+D/JOUrnk8EiECGCFD8Kf6sAdZAXjWQIZXxUkSACCRFIK/G57wUHdYAayApX/F8IkAEMkSAJEwSZg2wBvKqgQypjJciAkQgKQJ5NT7npeiwBlgDSfmK5xMBIpAhAiRhkjBrgDWQVw1kSGW8FBEgAkkRyKvxOS9FhzXAGkjKVzyfCBCBDBEgCZOEWQOsgbxqIEMq46WIABFIikBejc95KTqsAdZAUr7i+USACGSIAErCtz/yksnz/++ff8nwPzFgDeRTAyh/ZEhlvBQRIAJJEUAbOE/xt3OT+IkBayC/GkD5Iylf8XwiQAQyRABtYBqA/MiXwkfs864BlD8ypDJeiggQgaQIoA1MA0ARyluEOH9+NYjyR1K+4vlEgAhkiADawDQA+ZEvhY/Y510DKH9kSGW8FBEgAkkRQBuYBoAilLcIcf78ahDlj6R8xfOJABHIEAG0gWkA8iNfCh+xz7sGUP7IkMp4KSJABJIigDYwDQBFKG8R4vz51SDKH0n5iucTASKQIQJoA9MA5Ee+FD5in3cNoPyRIZXxUkSACCRFAG1gGgCKUN4ixPnzq0GUP5LyFc8nAkQgQwTQBqYByI98KXzEPu8aQPkjQyrjpYgAEUiKANrANAAUobxFiPPnV4MofyTlK55PBIhAhgigDUwDkB/5UviIfd41gPJHhlTGSxEBIpAUAbSBaQAoQnmLEOfPrwZR/kjKVzyfCBCBDBFAG5gGID/ypfAR+7xrAOWPDKmMlyICRCApAmgD0wBQhPIWIc6fXw2i/JGUr3g+ESACGSKANjANQGfy3fjbp8xnv3GHOfeK682CMy4yu7/vJPPOA480b957nhmYMmvzf/u3PWbHFp651Hz8yhvMP3zzDmNjKW6d8W3F5677N5mTl64xE+ceZ7aZNseg9a093mJgsViy9Epz9/2bMq8nBfj8uRKE/1oeCq+u1IaHMqROXooI6EcAbWAagDcK1Pd/8qA5dflVZmje8aZaq6cWIRtrr3HaiqvMHT99MHPybhVPzfcff+Z5c8L5l5m+SenxRnvB9/j+STPNiRdebp545oXMasn3Pbes75VyMLK+NGFRRT9zcwdEIAMEWhoksVjRALxmAB558lmzdP1NZsKhxybGMG4O7CM5O8ejTz2bGYFrFv3G2q3473/sGc5wj5sfLecdcOyZmZkALXtuXmc5CO+iCchAPHgJ/Qg0N0aav3vdAPzrY783H7v8M5uf0k+DX5oY+5KBfUnh3x7/PY3A8y+ZD55/KcU/CBNhcNJFV2RSO2nq14eYchCu08/e3AERABFAm7FXDcDTf3zRXPOlb5kd9p2fiHhRvJvj37LPPLPy+i+Z3/3hxUzIvPGIWtOtfc2fT/snE39bQ/blgHseeBium+Z6VPb3K5VJIxNB+mQ4EdCNANq0vWgAfvbQI2avIz+Um/C35mzvoz5s7t34KEzmmoS/sVb7hr9WPHg/niGw71Np4Jj2VjPW5SBco5u9uXoiACKANnCvGYDPffMH5k17zfVOdMbNOMR8+tbbYUJPKwR5xdn3RaA13Kvx9g2maN6UY/cwSJ8MJwK6EUAbuFcMgH2a/ZRl/j/atJ8Y6KWXBLadfjANQMLX/xs9b01jjxuA/6Obvbl6IgAi0CCDtLe9YADsx6bs5/PTYtTtuIVnLTNPPpvdR71QkXAZ321sizYfmhvteID0yXAioBsBtIGLbgCs+M866Vw14t/I5+yTP94TJqCxX97Ge92/FScaAN38zdUTAQiBVkJIer/IBsC+0//Ic1aoE/9GDu2zFkV/OaCxV97SAKSpAYg8GUwEtCOQpmmaY4psADS85t+ci3Z/f3jlWvh1XvRRosv4dnvmsfhmAM2Ndqy18zfXTwQgBNAGLqoBuOG276t95N+a0+u+9t3CmoDWvfJ+fPG3WNEAQPTJYCKgGwGUMItoAOxn6rfb89DCGAC7l59v+g1M9qhYuIhH67fX49GcaMdPN3tz9UQARABt4KIZAPu6v09f8oPmpxG/7+IPG7s3lPB9i2/sj7fJHvk38ELz2biO1luQPhlOBHQjgDZu0QzAlTfdVphH/q25XXvLt2gAUn5mvhXLotynAdDN31w9EYAQQImsSAbA/rDPW/c53IkB2G7PQzZ/l4A1GPbngjf+x1ObP6ZnP69v/7bHrvjC182CMy4y9gta0Ly0i99hv/nm10/8Z6FMQLt9JjmGCmDe8Un22u5cdP3trpnkmMQf0vqSzNXuXIg8GUwEtCPQrimSHJMa2PW4RBBJxs+57DOZC+975nzArPniN8xvf//H2MJrz73ypm+Ydx90dObr+fiVN8ReRxLs8jo3Sa22OzevdWc1b7s9JTmGriPJXO3OlfhBWl+7ayY5pp2/uX4iACGQpFnanSs1sOtxiSDijj/y5LOZ/qTv2KkHmWXXftE8+dx/pRZc++zAReu/YMZMPSgzI2B/QfDRp55Nvaa4eHbrvHY1meRYt9bpap4ke213LrqudtdMckziB2l9SeZqdy5EngwmAtoRaNcUSY5JDex6XCKIuONL19+UmcjaR+53378pM5H97r/8wowfXpjZ+pZfd3Nma4uLr6vzktRqu3Ndratb1223pyTH0HUmmavduRI/SOtrd80kx7TzN9dPBCAEkjRLu3OlBnY9LhFE3PEJhx6bicBOmX/i5tf0484b97wHf/2YqR32wUzWmMWvwMVdt+vz2tVkkmOu1+f6+kn22u5cdH3trpnkmMQP0vqSzNXuXIg8GUwEtCPQrimSHJMa2PW4RBBxxu0b8JLsOepc+8jfvqEvzpxpzrEmYMcDFmSy1h/8fIOzdabZW9qYqFzEPZ52Xl/i4u4z6jx0H1HXjXtc4gdpfXHniTpPO39z/UQAQiCqMeIelxrY9bhEEHHGT11+FSyq9jX/LJ/2j1q3fTlgcPfZ8HqL8hXBces06rwonLUcj9pX3OPoPuPOE3WexA/S+qKuG/c4RJ4MJgLaEYjbKFHnSQ3selwiiDjj9inxqP3FPW7f8BdnrizOse/kj7uuqPMmHX5C19abxZ6jrhG1v7jHo66r5XjcfUadh+4z6rpxj0v8IK0v7jxR52nnb66fCEAIRDVG3ONSA7selwhCGt/426dMtVaHBNV+1A95t7+0xtbx3/zuOfilgL5JdbPpsd+pNwFx6zTqvFZstd2P2lfc4+h+484TdZ7ED9L6oq4b9zhEngwmAtoRiNsoUedJDex6XCIIafyz37gDEn+Li/2cvzRP1uOX3PhVeN03fuOfur7urHGIqsu4x7NeT7evF3efUeeh6426btzjEj9I64s7T9R52vmb6ycCEAJRjRH3uNTArsclgpDGz73iekhI7Tf8JfmSH2k9ccf//ek/wN8YeN4a/V8KFLdOo86Li7ev50XtK+5xdF9x54k6T+IHaX1R1417HCJPBhMB7QjEbZSo86QGdj0uEYQ0vvDMpZABsPHSHK7G33fGhdDaF529LLe1Z4VJVF3GPZ7VOvK6Ttx9Rp2HrjvqunGPS/wgrS/uPFHnaedvrp8IQAhENUbc41IDux6XCEIan7rgZEhE7Xf7S3O4Gr/887dCa99j0ZLc1p4VJnHrNOq8rNaR13Wi9hX3OLruuPNEnSfxg7S+qOvGPQ6RJ4OJgHYE4jZK1HlSA7selwhCGt/5wCMgEbXfISDN4WrcfiQwKi9xjr/zwCNzW3tWmMTZZ6dzslpHXtfptLc4Y+i648zR6RyJH6T1dbp2nDHt/M31EwEIgThN0ukcqYFdj0sEIY1vv+9hkIjm+U56+wmGTrmRxuwvH0r4+D4u7VEa931/0vqk/Unj0vWlcen60rjED67nh8iTwURAOwJSg0rjUgO7HpcIQhofvfssSESfeOaF3ET08Weeh9Zuv1BIwsf3cak+pXHf9yetT9qfNC5dXxqXri+NS/zgen7t/M31EwEIAalBpXGpgV2PSwQhjUv7k8al67sel9Ynjbten+vrS/vjeNjRJKL5QfGV+EFaHzo/RJ4MJgLaEUAbSGpg1+MSQUjj6P6l67se175+FB90/70enzf+Ej9I60Pzp52/uX4iACGANpDUwK7HJYKQxtH9S9d3Pa59/Sg+6P57PT5v/CV+kNaH5g8iTwYTAe0IoA0kNbDrcYkgpHF0/9L1XY9rXz+KD7r/Xo/PG3+JH6T1ofnTzt9cPxGAEEAbSGpg1+MSQUjj6P6l67se175+FB90/70enzf+Ej9I60PzB5Eng4mAdgTQBpIa2PW4RBDSOLp/6fqux7WvH8UH3X+vx+eNv8QP0vrQ/Gnnb66fCEAIoA0kNbDrcYkgpHF0/9L1XY9rXz+KD7r/Xo/PG3+JH6T1ofmDyJPBREA7AmgDSQ3selwiCGkc3b90fdfj2teP4oPuv9fj88Zf4gdpfWj+tPM3108EIATQBpIa2PW4RBDSOLp/6fqux7WvH8Vn3IxDOn7OHcWnyPH2lyxR/FF8JH6Q1ofOD5Eng4mAdgTQBpIa2PW4RBDSOLp/6fqux7WvH8Vn4tzjaACCzl/2E1UjQ/OOpwHQTuBcPxFAEIgih7jHXQu8dH1UQOLuM+o8dH40PmpdcY+j8+cdv2TplTQAKQ3AaSuuogFAyJOxREA7AnGFIuo8SaBdj6MCFLWvuMfR+dH4uOuMOg+dP+/4u+/fZPonzaQJSGgCLGb3PPAwDYB2Auf6iQCCQJQwxD3uWuCl66MCFHefUeeh86PxUeuKexyd34f4Ey+8nAYgoQE4eekaWPxt7uPWWdR5aH9HXTfucYQ7GUsE1CMQt1GizpMa2PU4KkBR+4p7HJ0fjY+7zqjz0Pl9iLe/yDh83FmwGEVhVLTjI8efZZ58NptfsUSxkfhBqi90fvUEzg0QAQQBtIGkBnY9LhGENI7uX7q+63Ht688KH2sCTrroCr4c0OGZAPu0v33kn5X429yh9Sfxg1Qf6PwIdzKWCKhHAG0gqYFdj0sEIY2j+5eu73pc+/qzxse+rn3q8quMfYf7ttMPhgUKxTfveIuBxcK+4S+L1/xb84XuT+KH1vla76PzqydwboAIIAigDSQ1sOvxVkJIen/07rMgkbCPPJPOmdX5jz/zPLR2u/es1sLrvNSTWLrmD6mu0PkR7mQsEVCPANpArgVeur5EENL4W/aZB4nopsd+lxvxb/ztU9Dat9/3sNzWLuWF4zoMhWv+kOoAnV89gXMDRABBAG0gSaBdj0sEIY2/Y+b7IRH93k8eyE1Ev/svv4DWvsvMI3Nbu5QXjtMAWO6Q6gDlL4Q7GUsE1COANpBrgZeuLxGENL7nkadBInrFF74ukpS0hrTjl33uVmjtex/14dzWnnbPjJNFsZsYueYPaS/o/OoJnBsgAggCaANJAu16XCIIafyIc1ZAIrrgjItyE9HDP3IBtPajPrYit7VLeeG4X0IflQ/X/BE1b+M4Oj/CnYwlAuoRQBvItcBL128QQdrb89bcAImo/TGa3/7+j10X0n9/+g/wu9w/efU/dH3dafPEOD8NgWv+kPKOzq+ewLkBIoAggDaQJNCuxyWCkMa//P17IANg8bvypm90XUjtSw9o7r56x790fd1SPjjup9BH5QWtQYkfouZtHEfnR7iTsURAPQJoA0kN7Hq8QQRpbx958hn4y2PefdDRmX65irQX+9HDd846CjIAA5MPNI8+9SwNwPO6BFeqjW6Pu+YPaT/o/OoJnBsgAggCaAO5Fnjp+hJBxBmfuuBkSEwthhet/0LXxPSCtZ+D1ztt0SldW2+cHPAcnUbENX9IdYHOj3AnY4mAegTQBpIE2vW4RBBxxu1r4SgOY6YeZOzH8uLMh5zznR/9wgzuPhte74XXfN75WpF9MlaHIUD7RuIHqQ7Q+dUTODdABBAE0AaSGtj1uEQQccZ/+tAjsKBaHHc8YIF54N8ecyasv3r0CfO2kYWZrPVnDz3ibJ1xMOc5OgReypNr/nA9P8KdjCUC6hFw3cAaDIAlmRlHYN8H0MCxdtgHzYO/zt4EWGMRzDs+E/G3330gESvHiyHQrvPYqPu0txI/SOtPO28jTj2BcwNEAEGg0Qhpb6UGdj0uEUTc8eu++p1MxNXiuMO+880377o3M5G1T/vbZxfS5qg17jO3fi+ztcXFl+cV01C01lbS+xI/SHWTdL7W8xHuZCwRUI9Aa0MkvS81sOtxiSDijtufSM3q6XWLoX2d/uNX3mDs5/XjrqH1PPtu//OvvjGT1/wbeX17fVFXP7HQuifeL5YRaNRV2luJH6R6STtvI049gXMDRABBoNEIaW+lBnY9LhFEkvFLb/xaZo+yG3jaR+6X3PjVREbAmobLP38r/FG/xhqab/P86uIkueC5OoxCc22l+VviB6kO0szZHINwJ2OJgHoEmpshzd9SA7selwgiyfiTz/2X2e2QYzM3ARZX+7vs7zvjQmO/v//2H99v7C/52Uf49r/92x6zBmT+6RfC3/AXlccJhx5r7B6TYMJzdQhxXnmKqrW4xyV+kPYVd56o89QTODdABBAEohoj7nGpgV2PSwSRdPxL37vbiQGIi6er86q1uvnKHfcUTvxd4dUr103aH63nozhJ/NA6X+t9dH6EOxlLBNQjgDaQ1MCux1sJIYv7R5+7snAm4JjzLi6c+Ntco/Xb6/Fov6D4SfwgrQ+dXz2BcwNEAEEAbSCpgV2PSwSRZtx+PfA7Zr6/MOKy84FHGLunNFj4HoPWb6/Ho/lF8ZP4QVofOj/CnYwlAuoRQBtIamDX4xJBpB3/wc83mK33OEi9CbDfUPj9nzxYSPG3uUXrt9fj0/ZHIw7FT+KHxjxRt+j86gmcGyACCAJoA0kN7Ho8ihiyOL7+y99WLzB2D1lg4es10Prt9Xg0ryh+Ej9I60PnR7iTsURAPQJoA0kN7HpcIgh0HMUn73h0/77H542v9vnR/KL7l/hBWh86v3oC5waIAIIA2kBSA7selwgCHUfxyTse3b/v8Xnjq31+NL/o/iV+kNaHzo9wJ2OJgHoE0AaSGtj1uEQQ6DiKT97x6P59j88bX+3zo/lF9y/xg7Q+dH71BM4NEAEEAbSBpAZ2PS4RBDL+yJPPqn8PwKNPPcv3AASh+jyifRoVj/SHjY26btzjEj9I64s7T9R5CHcylgioRyCqMeIelxrY9bhEEMj43fdvggkuLo6uzrvngYdpAGgAIusY6Q8bi9atxA/S+tD51RM4N0AEEATQBpIa2PW4RBDI+PLrboYJDsUXjV95/ZdoAGgAIusY6Q8bi9anxA/S+tD5Ee5kLBFQjwDaQFIDux6XCCLt+FN/+JOZOPc4mOBQfNH4oXnHG7uXtDj4Hofi0+vxaH5R/CR+kNaHzq+ewLkBIoAggDaQ1MCuxyWCSDu+6vpb1It/I7erP/sVGgA+C9C2ntP2RyOuUWNpbyV+aMwTdZt23kYcwp2MJQLqEWg0QtpbqYFdj0cRA3L8a//0YzMwZVZbwkyLU55xo3efZW79wY8LaQLyxLUIcyN9YmNRDCR+kNaHzq+ewLkBIoAggDaQ1MCuxyWCSDJunyq3j/yzEH/787+HnPoJ6Kd9G9fYZtocmGitCbj4hi8X7uUAtH57PT5Jf7Q7F8VP4od2czYfQ+dHuJOxREA9AmgDSQ3seryZDNL8/ZvfPWfsu/3tG/6yfM3/fWdcuPkR9+PPPG/+8Z77zKc+c4s56mMrzL6LP2zsj/O8ee95m42GNRv2b3vMjtlz7Lk25olnXth8jfmnXwgbgEae7R5XfPrmzXu2e0+DmU8xjX3xNt1HHdFcorhL/CCtD51fPYFzA0QAQQBtIKmBXY9bgnjoN0+Y6776HXPy0jWmfsJHzbsOOvqvAovuL2385791Z2bieuM3/ikzA5B0Pw2DYjG12FqMr/vadzdjLpEzx1/KrAZ8xTJpPbWeL/GDtO/W6yW9j3AnY4mAegSSNkzr+VIDuxr/yv1Pm9OuvMVMXbgkN3FsxaJx3/6U8JPP/Vdm5G+v9XfhIu/2uceiJebiG75kHv6PpzPbq0T4HPfLVDRqPu2txA9SvtPO24hTT+DcABFAEGg0QtpbqYGzHr/pp4+Z+eddaezP3KZds+s4+3KCRFxJx5euv8nb/dr3KJyybI355SOPZ77vpDjx/O4aBLSXJH6Q8onOj3AnY4mAegTQBpIaOKvxb/3rC+aE1Z8zY/fA3xCH7rlT/NtGFpr/+M8/Zi6Ev/39H8344YXemgCLiTUCF677gnny2dfeuyCRN8e7K9Yu8O7UC3HGJH6Q1hxnjk7nqCdwboAIIAh0ao44Y1IDZzF+/V3/Zt499wSvxa+BlX19XCKttOPXfuU7KjCYPP9E85MNv3aGQ1r8GJe94WjUfdpbiR+knKWdtxGHcCdjiYB6BBqNkPZWamB0/Pwv3GHGTjtYhfDNOulc56I384RzVGAxbsYh5nPf/IFzPCSB4Hj2ot+MaVreaMRJ/NA8V7u/G9dJe6uewLkBIoAgkLZxGnFSAyPjH/30P5r+SQeqELwdD1jQlXfGb/ztU2an4QUqMOmfNNNceuPXaAKedyvC7YSxW8caPJD2VuIHaR9p523EIdzJWCKgHoFGI6S9lRo47fjpa7+mQuQsblvvcZC5/cf3d03ovv2j+8xYj98E2VpLl3/+1q5hIwkGx7M1I625Tnpf4gcpX0nnaz1fPYFzA0QAQaC1IZLelxo4zbh92r9v0kwVBsB+Tv4L3/7nrgucfXo9i28sTJrvNOfbZwI+94/ZfS+CJAocz1bkO+GZph6aYyR+6DS3HWu+Vpq/Ee5kLBFQj0CapmmOkRo46bh9w5+W1/wHd59tbvrOD7su/g1StKJq19CcD1//tu8J+OlDj+SGVQMz3mZrDtB6k/hByhc6v3oC5waIAIIA2kBSAycZ/9bDL6h5t/+O+7/P2KfiJYJyPW6/MniH/earMAFT5p/IjwgW7P0ArvlD6h90foQ7GUsE1COANlASgZfOtZ/zR9fTjfjwg2d79aU3D/76MTN83FkqsLto/RdyN02SqHA8/rMEaL9JnCDlAp1fPYFzA0QAQQBtIKmB445/8WePe/8lPzvsO99cedNt5uk/vuidiNk12TfbvXWfw702AvYXDjc8ym8MlIRNy7hr/pBwQOdHuJOxREA9AmgDxRV46Tz79b7oWlzFv2WfeebjV95gfv3Ef3on/K0E+W+P/96ce8X1m38MyRUe6HVPW3GV9zi24sr77Z8VQGtB4gUJd3R+9QTODRABBAG0gaQGjjNuf9jHt+/2H5h8oDng2DPN2lu+ZezX8EpE5Nv4vz/9B3P1Lf9o9j/2DGP3guY5y3j7lcH8AaH2gupbHUnrQetC4gfX8yPcyVgioB4B1w0sNbgd/9CaL+UmUKN3n7X50fLEuceZ2Sd/3Jx5ybXG/pSvhkf7Ejk2xu2zAvYTA2esXr95j3avb957Xq4fI7z4hi+rM1UNPHn7v+bFNX9IWKPzqydwboAIIAigDRRH4KVzJhye3U/6BvOONyuv/5K554GHjX0ULBEIx/+XzNthYTG0WFpMh+Ydn5lRm7bolExyg9Zvr8e3y3mSYyh+EjdIa0HnR7iTsURAPQJoA0kNLI3ffO/jplqrw8JiPw9/yY1fNb/7g39v0JNITMv4U3/4k1n92a8Y+6wJWjc25/ZrjdG9o+vo9fi88Zf4QVofmj/1BM4NEAEEAbSBpAaWxs/7h+/CYmLF/7Y7fwqLiUQ2HH/t2YKv3/mTTEzAZ279HpwztH57PR6taRQ/iR+k9aHzI9zJWCKgHgG0gaQGlsbnn7cGNgD8wZnOT+NLJJpm3L6Gj9bOKcvW0AAEIYwjkoc0uW+OQea2sRI/NM/V7m90fvUEzg0QAQQBtIGkBpbGp33goxAB2tf8+bR/9w2AfTnAvpkQqR/708btSD3JMWR+xoa54y/xg1QLaA4R7mQsEVCPANpAUgNL42+beRQkIvbNaRJJcNyNQVjx6Zuh3L3roKPh3KH12+vxaG+g+En8IK0PnV89gXMDRABBAG0gqYGl8e32mgeJiH2HukQSHHdjAO6+fxOUu+33PQzOHVq/vR6P9gaKn8QP0vrQ+RHuZCwRUI8A2kBSA0vj6E/a/uZ3z8EiIpEMx9sbiEefehYyAPbNmyi2aP32enze+Ev8IK0PzZ96AucGiACCANpAUgPCoW2gAAAgAElEQVRL4+j8EkFwvL14Z4VL3vlD5+/1eLQOUPwkfpDWh86PcCdjiYB6BNAGkhpYGkfnlwiC4zQAaI0VOR7tDxQbiR+k9aHzqydwboAIIAigDSQ1sDSOzi8RBMdpANAaK3I82h8oNhI/SOtD50e4k7FEQD0CaANJDSyNo/NLBMFxGgC0xoocj/YHio3ED9L60PnVEzg3QAQQBNAGkhpYGkfnlwiC4zQAaI0VOR7tDxQbiR+k9aHzI9zJWCKgHgG0gaQGlsbR+SWC4DgNAFpjRY5H+wPFRuIHaX3o/OoJnBsgAggCaANJDSyNo/NLBMFxGgC0xoocj/YHio3ED9L60PkR7mQsEVCPANpAUgNL4+j8EkFwnAYArbEix6P9gWIj8YO0PnR+9QTODRABBAG0gaQGlsbR+SWC4HixDQDz6za/Er5o/0r84Hp+hDsZSwTUI+C6gaUGR+eXCILjbgWC+XOLr+/1i+Zf4gdp/+j86gmcGyACCAJoA0kNLI2j80sEwXG3AsX8ucXX9/pF8y/xg7R/dH6EOxlLBNQjgDaQ1MDSODq/RBAcdytQzJ9bfH2vXzT/Ej9I+0fnV0/g3AARQBBAG0hqYGkcnV8iCI67FSjmzy2+vtcvmn+JH6T9o/Mj3MlYIqAeAbSBpAaWxtH5JYLguFuBYv7c4ut7/aL5l/hB2j86v3oC5waIAIIA2kBSA0vj6PwSQXDcrUAxf27x9b1+0fxL/CDtH50f4U7GEgH1CKANJDWwNI7OLxEEx90KFPPnFl/f6xfNv8QP0v7R+dUTODdABBAE0AaSGlgaR+eXCILjbgWK+XOLr+/1i+Zf4gdp/+j8CHcylgioRwBtIKmBpXF0fokgOO5WoJg/t/j6Xr9o/iV+kPaPzq+ewLkBIoAggDaQ1MDSODq/RBAcdytQzJ9bfH2vXzT/Ej9I+0fnR7iTsURAPQJoA0kNLI2j80sEwXG3AsX8ucXX9/pF8y/xg7R/dH71BM4NEAEEAbSBpAaWxtH5JYLguFuBYv7c4ut7/aL5l/hB2j86P8KdjCUC6hFAG0hqYGkcnV8iCI67FSjmzy2+vtcvmn+JH6T9o/OrJ3BugAggCKANJDWwNI7OLxEEx90KFPPnFl/f6xfNv8QP0v7R+RHuZCwRUI8A2kBSA0vj6PwSQXDcrUAxf27x9b1+0fxL/CDtH51fPYFzA0QAQQBtIKmBXY9LBMHxYgsUWr+9Ho/2B4qfxA/S+tD5CxD/ciUI/1QJwscqQbixEoT3VoLwa5WgvqISjCwuByNTS+/ZZwyiEYwtMAJoA0gN7HpcIgiO0wCgNV7keLQ/UGwkfpDWh87fQ/GPVYP69ZUgXFSaPLxNgSWNW0uCANoAUgO7HpcIguM0AGiNFzke7Q8UG4kfpPWh8/do/H+Xa+Hd5SD8YGnXOWOT6AXPLRgCaANIDex6XCIIjtMAoDVe5Hi0P1BsJH6Q1ofOz/jwL5Ug/FJ1KJxVKpW2Kpi8cTsSAmgDSA3selwiCI7TAKA1XuR4tD9QbCR+kNaHzs/40DRhsKlcGzm2tGjR30q6wfGCINCU/OZCiP231MCuxyWC4DgNAFrjRY5H+wPFRuIHaX3o/Ix/nQFo8P6j5Vr9OBqBgoh8p22gDSA1sOtxiSA4TgOA1niR49H+QLGR+EFaHzo/49sagNeMQK2+YVRQ36uTfnBMOQJoA0gN7HpcIgiO0wCgNV7keLQ/UGwkfpDWh87P+A4GINg89mqlFn6xNHX4TcqljstvhwDaAFIDux6XCILjNABojRc5Hu0PFBuJH6T1ofMzXjQAm58NKAfhH6rByMHtNITHFCOANoDUwK7HJYLgOA0AWuNFjkf7A8VG4gdpfej8jI9nALbg9Gq5Vl9bmjq1rFjyuPRmBNAGkBrY9bhEEBynAUBrvMjxaH+g2Ej8IK0PnZ/xiQxA402C9/fVZu3crCP8WykCaANIDex6XCIIjtMAoDVe5Hi0P1BsJH6Q1ofOz/hUBsCUg/C58qSZU5TKHpfdQABtAKmBXY9LBMFxGgC0xoscj/YHio3ED9L60PkZn84AbMHt/275AqGGnPBWGwJoA0gN7HpcIgiO0wCgNV7keLQ/UGwkfpDWh87PeMgA2JcEXq4Mjbxfm+5xvVsQQBtAamDX4xJBcJwGAK3xIsej/YFiI/GDtD50fsbDBsCagFcqtZEFFFWFCKANIDWw63GJIDhOA4DWeJHj0f5AsZH4QVofOj/jMzEAm58JqA7VD1Qogb29ZLQBpAZ2PS4RBMeLbQCY33zz65o/pPyi84+9eJPJ8/+e120yyP8Z6zeYPa66z+x+6Y9MbcX3zXs+epN5xwmXm+0P/6gZmHFY41373bp9qTxheHJvK6qy3aMN5FrgpetLBMHxfAWC+Bcbf9f8IdUPOn+e4m/nRsQ/TuzklXeaXU5dZ7atH98tE/Bs/9CstymTwd5dLtpAkkC7HpcIguPFFiDmN9/8uuYPKb/o/EU3AM0mYfLFPzQ7HbPS9E892KkZqNbCn5aGh0f1rqoq2jnaQK4FXrq+RBAcz1cgiH+x8XfNH1L9oPP3kgFomIE9rv6FecdJa8zAHoe6NAKXKJLB3l0q2kCSQLselwiC48UWIOY33/y65g8pv+j8vWgA/moE1txnxh+93FRrdRdG4NVqbWRe7yqrkp2jDeRa4KXrSwTB8XwFgvgXG3/X/CHVDzp/LxuAhhEIln7HjNn3/ZmbAPsDQqWJs8cpkcLeXCbaQJJAux6XCILjxRYg5jff/LrmDym/6Pw0AK+9EXHa1febty74eOYmoDoUXtebyqpk12gDuRZ46foSQXA8X4Eg/sXG3zV/SPWDzk8D8PpPIrzztPWmku1LAv9Tro3MUCKHXV7mlP3ebL88oRqEHykHI+vLQXhnJQg3VoLwsUoQ/mnz1ywGmX1RQ+buDm0+DfHbTJtjJs49zpyybI2554GHjURIHC+24DG/r88v2sOowUfnpwF4vQGwLwvY7xLomzI7Q72oP1BatOhvu6yuHk6311791Vo4txyEV20R+lfRAmZ89wxS/6SZ5qSLrjBPPPMCjcDzrxcCCmNv4oHyDw3AGwW48dp8nrcTzvuqqU4+MDMTUB4Kj/FQkbuypK1G1er7VWsj/1AJwpfQhmF89wQ/Cuv9jjnd/OZ3z9EE0AT0fA1E9Ujc4zQAfhqAxjMBGX5C4Nel0rK/6YriejHJrnOq5WBkSSUIfxu3GXhe/uIeNwf7HPUhmgAaABoA8CVKGgB/DYA1AfZbBONyYozzFnmhzU4X8drT/GdVgvD3MQDJElxeCySjpPmiCejNp735csf/5j1pz7SeTwPgtwGwJmD7+edkoy21+oZSqbSVU/3N8+LVoZFDtryBLxvAuixorc3J+/IzEjQB/ysGFMbewwLlCBoA/w3AtLUPmLH7H5WJphXyFwPtjx9UgvCbaDMwXhZcHzGiCeg94aPZeS3naD/SAPhvAOyzAEMXfTujjweO3JLng/TM57Zfd1gJwv9CG4HxOsW/kbe9jvyQefSpZ3v+NWEKY2+ZoUb9p72lAdBhAKwJGH/kBVk8C/CX0nv2GZO5EHf9ghMWVbZ8nI8f5eNLFZsbY9KiD5nbNjxnJFLLcvz+p3pLcFoNRlrhYdxrhrsVz6T3URylXpDWg87P7wGIb0D2uOo+MzD1ENgElIPw+K7rdaYTBvtuWx0a+QlafIzX/ai/Xf5oArprSNrlgMfi95UksNI4ijUNQHwBto/C8/7/9hMuz8IA/DBTPe7mxQamHLhjJQg3oYXP+PgkpQ0rmoDumQBtteHbeiWBl8bR/dAA5C/qSUyF/c2AgWlzURPwcmnC8GA3dTuTuaoTh3etBOETaNEzvrji38gtTUB3TEADb96m6ylJ4KVxFHcaAF0GwJqFnY5ZiRoA+xPEB2Uiyt26yJZH/hR/vt4fu/hrCz9kvv6rZ/meAIdfGIQKUK/HSwIvjaP40QDoMwCTL/5hBp8IGLm0W9qNzxPsuy2f9k/3CAMlCO3xfCbA7TMB2usj7/VLAi+No+unAdBnAOyzAOMOPDH2A6H2NVJ/ABfmblxhwqIK3/BH8W9fxPFwoQlwZwKQvDA2hD+2imJIA6DTAOyy5GrQAISvlGqzRndDwqE5tnzUD90s43v8pQO+HODGBKAC1Ovx0iN8aRzFjwZApwGYvOpOWNPKE4YnQ+LsOrgSjBxWCUL3n/OffrjpP/RcM/q4dWbw9FvNmE/eZcYsu8+MXbnB5P05VTv/1qs3md3W6izUJO9wtefar73En95q/8wAnwnI3gSgAtTr8ZLAS+MofjQAenl19F7vw0xArX6kaw1Pff0tX+/7J7TAo+Kre8w1/QuXm8GP3e6FyEcZDSv+Qz0i/g2zQBOQvVBLQpJ2PKq/eLy9CW3FJS3ujbjW6yW9TwOg1wC85bCzMAMwFC5NLdCuA119t391xvvM6OPXmzGf+qXXwt8wBO+9Wm+BNgQ9zS1NgA4TkFRweP7rjUFDyNPeonjSAOjl17d/8DLMAAThl13reKrrb/lVP3Rzr4+fdKAZOOJiM2bFgyqE3xqAd12ltzjTiH5rDE2A/yYAFaBej08r/I04FD8aAL0c+96P3fJ6jUv4Pi/75vpUAu00aK+9+rP+Sd/q3keawXPvUCP8Vvx3ulxvYbYKOXKfJsBvE4AKUK/HN4Q87S2KHw2AXp6tLbsdMgCVIHzIqZanuXi1Fp6FFnVzfP/BZ5sxKx5QJf5vunSTmX6t3sJEBL9dLE2Avyagudf49+uf3o+DR1rhb8TFmaPTOTQAenl290t/BBqAkcfTaLS7mKlTy5UgfKpTwSYZ65/3CTN21UOqxN8++q9do7co2wl4FsemX/OgGXfQErDg2xM0PyKY3mAk6Uee+8b6awh52lsUUxoAvVw7/ZpfQnxYHQqfdyfmKa5cDkaWoAXdiB+Yf4E64bfi//Yr9BZkFkLf6Ro0AemFOq3ASHGNfuPtG8U9DiYSvtJ4nDk6nUMDoJdvp6y+GzIAlSD8fylk2lnIVpUg/G2nYo07Zp/2H7tqozoDsO0lm8w0PvXf8Sc3+XKAfyZAEimOu8tZXE6MOo8GQK8BeOeHrkMNwJ+cqXnSC48Kwv2jijTJ8ereR5gxy+9XJ/720f+ua/QWY6dH7lmP8ZkAd4JCsdaFbRJubHcuDYBezn3zoaeDBsCj3wOoDoWfbVegiY5NOlDdu/2t8Nv/26zmo/8kRoHPBOgSKhoLN/lKxI9tPiZGA6DTAMxYt8H0Tz0YMgBWc5M+UHdz/juG+ypB+CJazPZz/g1B1Xa785U6CzGJaGd9Lp8JcCMqFGs9uKKcSQOgk3eHzv8mJP6b66ZWX+hG0BNetVoL56KFXJk+X9WX/LQalMnrdBZi1qKe9Hp8JkCPWNFYZJ8rlDdpAHTy7t8dtxo1AK+Ugn23TSjVbk7P4hf/7Nf7toqqlvvbX6qzCJOKtavz+UxA9sJCsdaBKQ3Aay+hpuV6V5zk+rrbjBwLGoD6z92oeYqr2m8kQgrZ/rCPlu/2b1eovf6Vv1k0C58J0CFYNBbZ5gnhTRvLZwD0PfiauuZeU6nVQQMwsjyFVDsImbLfm9Gf/O1fsEzto39rCKas11eEWYh21tegCchWXCjW/uNJA9B7zwC8++zPg+IfmlFD4d4O1Dz5JatD4Sy0iH3/Sd92j/obx8atpvhnaQRoAvwXLRqL7HKEciefAdDHvzssPA81AC+WhodHJVdrBxHVofB0qIinz1f5pT8NAzCeP/rT8Yt/0pgDvicgO4GhWPuNJcSdfAkgc+5Jw1eJYq7daAb2nI8ZgKH6bQ6kPN0ly8HIeqSI+w89V/XT/+/kl/84aUKaAL+Fi8Yim/wg3Glj+QyArmcAJn3qnzDxD0Jjv3I/nVo7iCoH4Z1IEY8+bp1qAzDhal0FmMitXpfv3vhyQDYiQ7H2F0eEO2kA8uWnNFy6y5KrYQPQN3n4HQ6kPN0lK0H4MFLEg6ffqtoA8PP/bpuQzwT4K140FnhuEO6kAXDLPWkEXorZbs6pqAF4NJ1SO4qqBOETSBGP+ft7VBuAqfwEgJOXAJobic8E4EJDsfYTQ4Q7aQB0GQD78799U2ZDBqAchNc4kvJ0l60E4X8hRTxm2X2qDcA0GgDnBsCaAT4T4KeA0VhgeUG4kwZAlwGY8ImvQeJv810dGjkknVI7iqoE4ctIEY9duUG1AZjBn//tigGgCcCEhkLtJ34Id9IA6DIAOx29HDUAL5cmDA86kvJ0l0ULuPFxOq23zU9V82/3Deny5QC0lhkfogTH+Da/+OdzXY1Z+vNcH8Bp4tyxByyG6rtcC+9Op9IOo9Di1Cr8jXVrKsCirJUmgEKL8g7jM6qhWt1U9zva2G9zHfzwl83YT/2qq4ZAC6dNvezHkPhvqddPOJTydJdGG6khpFpvtRRg0dZJE5ARgSt7xInyDePd1k1190NM/2GfNINn3NaVL3jTwmu7nn4DbADKtXD3dCrtMAptKK3C31i3lgIs4jpdvjEQrWvGuxUa4us/vtW9jzD2V15d/tCbFl7b/vCPQgagGoR/LJWW/Y1DKU93abQRG0Kq9VZLARZ1nXwmwH8hQDmC8bpzXN1jntn8hW8O3vCtgddm2K//nXYoZAAqwcgt6RTacRTanFqFv7FuDQVY9DXSBOgWCJRDGK8j/5ufETjt5kzfI6CB24Jl3wXFPzTl2sixjqU83eXR5msIqdZbDQXYC2vkywE6RADlC8brz3PfrA+bsRf+JBMjoIHb3n7C5agBeHVgt/12SKfQjqPQhtQq/I11ayjAXlkjnwnQLw4onzBeRw1U95hrRp9yE2wCNHDbuFknoQbgIccynv7yaMM1hFTrrYYC7KU18pkAHQKA8gbji5HngfkXGOTL4La+eJPZdvUms90lm8xbLt1k3nb5JmN/oXXi2k1mDw++pG3a1feb6qQDQQMwcml6hXYciTaiVuFvrLuXxFXLXvlMQDHEAeUWxuuog76ZpxhXXyhkTcHOV24yk69x/yVl7fjxvR+7BRT/0PTVRuqOZTz95dEmawip1tt2SeexfJqtGXc+E6CD/FH+YHwx8lzd+0gz5oIfwy8JdNKRN1+6ybzrqk1mehefGRh/5AWoAfhLadc51fQK7TgSbcBOCdMw1iw6/Dt/4W/OAU1AMcQB5RjG66iD6p4LzZhP3uXUBFhNsS8Z2JcJpnXBCAzuswg1AN9zLOHY5dHm0iDyndbYLDj82y8DYPPBlwN0kD/KI4wvRp6rM97n/JmABp9ve8km8+6r3HHWlNV3o+JvqrX6mZhCO45GG6+RDK23FH13DZQVttYEbDd7CdyMaK0zvhgixTy6zWN138Wmmz8T/9bLNpnd12XPY+887Vqcc4Zm7uZYwrHLo82gVfgb685KpHid7BuwGdMZ6zaY8YuXWkeNNyW/P58Ysgac1kBf/WTo0wENfo57u83qTWbC1dly0JsPPR3F6ClMnbsQTQOQbdE0ixb/zh7byavuNPZ3ubc+4GjTN+UgtEEZTyFkDTiqgf6Fy52/H6DVINhPDGTBu/YBR//uc6DaqA6Fn+2ChGNT0ABkUzBZFB2vwVywBlgDWdbAjPUbzB5X3WemrL7LTPzkreadp64zb53/MTMw43BI3GLpRq1uBj/0pa6bgLddscnMuA6ro6Hzv5kFPoswde5CdKxEdnCIrQ5M2/0sm43XwpqO+BE/1kD3aiBYdrsZv3iZGZg2Nwuxa3uN6tRDzdgLf9p1E7Dj5ZgJ+LvjVrfdTwK9fKUU7LttFyQcmyLBhtoCok3wW9dLwuke4RBrYs0a8K8G7Mdtdzl1nRm95/y2HI9qRP/BZ3fdAFiet98qmLbethk5FsSi/nNMmbsUjSa3VVC13U9bIIxL31zEjtixBvyrgenX/NK8/YTLTN/kWaD4vfFTBoMf+UouJiDNewL2WPNzU0HfbFwLl3VJwrFpaAD8a0SSI3PCGmAN5FUDtRXfN2P2PSJTE1Dda1FXPxXQ/EB0t7XJaundZ38e3vuooXBvTJm7FE0DkKw48mpKzss8sQZYA92qAfsjOG857CxYCJv1ZeCDn87lWQD7EcGp6+PXzg4LzkP3/WJpeHhUlyQcm6Y5QWn+bnZaGv/uVkNxnvgNSKyIFWsg/xqYce1GM/7IC1Ex/N/46YebsZ/6ZS4mwH5ZUKyaunajGUDfCzFUvw1T5S5GpxH95hiNot+85lhFAX6khHPEbD7iHI+kiBNx6mIN7HgE/IM4fzUBeT0LYDn/vTG+KGjSijv+utZmnUvydzkYWdJFCcemSrKxduc2i6nGvynOFGfWAGuANRBdA/aZgLfMOxMWRqsf1f2OzuUZAKtN41bLPyC085Kr4X32TR5+B6bKXYxuJ+pJjmkU/eY1s/GjG5/YEBvWAGvA1oD9PY6x+x8Fi6PVlsGzv52bCbC/Itipprc76FR0j492Ub7xqZKIfbtzm8VU49+dioFjnZuF+BAf1kDv1EBtxR2mOulAVCBN/9zzcjMA9hcEp0f8jLD9GGTflNnQ/spBeA2uyl28QjtRT3JMo+g3r5kE1jsExlwz16wBrAZ2OmYlJJBWW6q7H5LbRwIt978r4ieEJ3zia/jehkYO6aJ841MlEft25zaLqca/SQgYIRA/4sca6J0asC8FwO+Sty8DnHFbbs8CvPnS9vmyPzLWTuMSHHu5NGF4EFflLl4hwebagqNR9JvXTPJq3wzEhbiwBlgD7Wpgl1OuaasFSbSkf8Gy3AyA5f/J696YW/Q9DuVaeHcXpTubqZIkrd25zWKq8e92Bc5jb2wOYkJMWAOsAVsD9rcD0B8Q6tv/mFwNQOtXBE+97MewqakE4SeyUeUuXqWdqCc5plH0m9dMUiOpsQZYA6yBZDWw41EXYYJZq5sxy+/PzQS8peVlgF1PvwHbTxCa8qSZU7oo3dlMlUTs253bLKYa/2bjJ2t84kW8WAOsAftTwu30IMmxwTO/kZsBsFo1renTANsf/lFoP+Ug/EOpVNoqG1Xu4lWSJKzduRpFv3nNJDOSGWuANcAaSFgD9itzZxwGiebo49blagAmbPmRIPtFRwPTDoX2UgnCm7so29lN1U7UkxxrFlONf7PxEzZ+F7+ClLlhblgD/tbA9vPPgUSzf+HyXA3Arlu+FChY+h1oH1Yvy0PhMdmpchevlETs252rUfSb10yC8ZdgmBvmhjXgbw3scuo6SDj7Zp+eqwF42xWvYfv2Ey6H9lEJwldHTxh+axdlO7up2ol6kmPNYqrxbxKMvwTD3DA3rAF/a2DCJ2+FhLO6b36/C2C1avstbwQcN+skaB+VIHwoO0Xu8pWSiH27czWKfvOaSTD+Egxzw9ywBvytgSmr74KEs7rnglyfAdjukk1mj6t/Yaq1mdA+KsHIpV2W7eymayfqSY41i6nGv0kw/hIMc8PcsAb8rYE91vwcEs7q1ENzNQDbrt5k3vuxm6E9WK3sq4Vhdorc5SslEft252oU/eY1k2D8JRjmhrlhDfhbA9PX/QoTz0kH5moAtrl4k9nxiAuwPQThX0q7zql2Wbazm66dqCc51iymGv8mwfhLMO1yM2nlD8z4o5ebsfsvNn1TDkKbV328xcBiMX7xMmOxaYcZj+mqcU35SqIV7c7NWzMG916IcsD3slPjHK7ULilJjuWdQHR+Tc3Wy2u1jzbGH3mhqdTqaMMWNr5aqxv7DW0z1m2gEeDHVbtSA0m0ot25KH8j8WM+ib2Hwe6nWqufmYNsZzdlu6QkOYYkwIfYXhZVLXu34j/uoFMKK9xJ+i3OuRYrmgA+6u9Gf8epx07n5KkBo49fnwGnDL83OzXO4UqdkhNnLM8EZjF3N5qEc2BkvPmRfxBm0Ky9c43xi5d25REgaxurbe34xdGITudkweFpr9F30Okopzydg2RnO2Wn5MQZSwu+L3HaG7Do67eva/Np/+TGxb4cMHnVnTQBfCnAaQ3E0YhO5+SmAys3mOqUOZABqAbhDdmqcQ5X65ScOGO5JfDiTZm8g7ToAqp9f/YNf3HqkOe80STsdPQKp+Svvba4fvzZC7Tv8tIP+0NE6NortfrCHCQ72ylREPJKYFbzkgRwEnCJ4dgDFuON2qMvH2x9wNE0AHwGwGkNaNWPgSMuRnnlldLE2eOyVeMcrqY1gTQAfgt3Vqagf3fsaTq0vjXH90892Cn5Z5VjXkdvL6P9kRWPJ71O3/7HoAbg3hzkOvsptSYwacKjzif5+E0+aH32ejzr2+/61p4ftL+ieNnl8TFL78XfV1QLl2WvxjlcUWMCsywO7Q1Y9PWj9dnr8UWvD+4vX4OD9leWXB73WqOXfA599G9GDYV75yDX2U+pMYFxEx3nPBJIvgQi4Y/WZ6/HS/hy3O/69z0/aH/F4eisz+mfdx5qAF4sDQ+Pyl6Nc7iixgRmWRC+N1ivrw+tz16P7/X64f7dGhy0v7Lk8ljXWrXRVKbPxwzAUP22HKTazZTqEpjRx/8axUKCcEsQKL5offZ6PIo/4/3uj7zzg/ZXg4e7dTt47vcx8Q9CUw5GlrhR4xyuqi2BWRdK3g3E+TsTLFqfvR7P+upcX8QHwwftr6z5XLre6GOuhg1AX23WzjlItZsptSVQSnDScRIARgCu8UPrs9fjXeeH1/e7f1znB+2vpHyNnt8381TUADzqRolzuqq2BKIF0BrvukF4fYwg0frs9XjWH1Z/xK8zfmh/tfKxy/tjPvVLU5k8CzIA5Vp9bU5S7WZaTQl0URxs8M4Nnjc+aH3e/shLBvn/++dfMnn+R/efd/44v9/9heYHrU8XnB51zcGPfBUSf7vX6tDIIW6UOKerakpgVGKR42gDMN4twaH1iYi/jc1T/O3c6P5Zn27rs9fxResT4e6ksf0LlqH99HJpwvBgTlLtZlpNCUya8Djn93oD+75/tD5pACiAvte45vWh/TW2zSMAACAASURBVBmHo7M6p7rPUZABKNfCu92ocI5X1ZTArAqh+Tqam68X1o7WJw0ADUAv9Elee0T7s5mLXf495oIfQ+K/ZZ/n5SjVbqbWkkBXxZFX43DeeMKE1icNQDycWY/EKU0NoP3pitdbrztw4vWwAShPmjnFjQrneFUtCWxNaFb30xQ9Y7pHlmh90gB0L1fsi97DGu3PrHhcuk7/wWdDBqAahH8slZb9TY5S7WZqLQmUEpx2nKTlN2mh9UkD4Hd+2X+684P2Z1reThS3aqOpTj0UMgCVILzZjQLnfFUVCcz463+bi4cE5DcBofVJA+B3ftl/uvOD9mczF7v6e/Cj30HF35SHwmNylmo302tIoKvCsNclAfmNAVqfNAB+55f9pzs/aH+65PbGtQeOugw1AK8O7LbfDm4UOOerakhgI5EubklAfhMQWp80AH7nl/2nOz9of7rg9NZr9o2cgBmAWn1DzjLtbnoNCWxNaJb3SUB+ExBanzQAfueX/ac7P2h/Zsnl7a41ZvkvTKU2EzMAwcil7hQ45yv7nsB2Sc3yGAnIbwJC65MGwO/8sv905wftzyy5vN21Rp92Myj+oemrhWHOMu1uet8T2C6pWR4jAflNQGh90gD4nV/2n+78oP2ZJZe3u9bA/AtQA/CX0q5zqu4UOOcr+57AdknN8hgJyG8CQuuTBsDv/LL/dOcH7c8subzdtap7LkQNwPdylmi30/uewHZJzfIYCchvAkLrkwbA7/yy/3TnB+3PLLm89VpjPvlDVPztr/+d4VaBc766zwlsTaiL+yQgvwkIrU8aAL/zy/7TnR+0P11weuOao49bBxuASjD83pwl2u30PiewkUiXtyQgvwkIrU8aAL/zy/7TnR+0P11ye9/s01ED8LRb9fXg6j4n0GVxNK5NAvKbgND6pAHwO7/sP935QfuzwcOZ367cYKpT5kAGoBqEN3gg0W6X4G0CHX79b3OxkYD8JiC0PmkA/M4v+093ftD+bObiLP8ePPMbkPhv3letvtCt+npwdV8TmGUxdLoWCchvAkLrkwbA7/yy/3TnB+3PTtyMjA0csQo1AK+UJs4e54FEu12CrwlEkp8klgTkNwGh9UkD4Hd+2X+684P2ZxKuTnJu3/7HogbgXrfK68nVfU1gkmQj55KA/CYgtD5pAPzOL/tPd37Q/kS4OzL2op+ZSq2OGYBauMwTiXa7DC8T2KXX/20BkYD8xgCtTxoAv/PL/tOdH7Q/I0Uc0IDRSz6HiX8QmlFBfS+3yuvJ1X1MoIuiiLomCchvAkLrkwbA7/yy/3TnB+3PKF5GjvfP/ThqAF4sDQ+P8kSi3S7DxwQiyU8aSwLym4DQ+qQB8Du/7D/d+UH7Mylfi+ev2mgq0+djBmCofptb1fXo6t4lEHjqRyyONtcmAflNQGh90gD4nV/2n+78oP2ZhrM7xQye+31M/IPQlIORJR5JtNul+JbATsl1MUYC8puA0PqkAfA7v+w/3flB+zNrTh/4wFWwAeirzdrZrep6dHXfEph1QUjXIwH5TUBofdIA+J1f9p/u/KD9KfFz0vG+maegBuBRj+TZ/VJ8S2DShKPnk4D8JiC0PmkA/M4v+093ftD+RPm7OX7MigdNZfIsyACUa/W17lXXoxl8SmBzMrv1NwnIbwJC65MGwO/8sv905wftzyx5fvAjX4HE3+6lOjRyiEfy7H4pPiUwy2KIey0SkN8EhNYnDYDf+WX/6c4P2p9xeTrOef0Ll6MG4OXShOFB96rr0Qw+JTBOkrM+hwTkNwGh9UkD4Hd+2X+684P2Z5Z8Xt37SMgAlIPwLo+kuTtL8SmBWRZD3Gv1GgFNWvkDM/7o5Wbs/otN35SDoIZBa6cb8b1uALqBMTKHrUFbi+MXLzO2NnutH7XvF8m9jY3L09J5Yy74cRZcdl53VNejWXxJoJRgV+PaGzDu+qev+5UZf+SF+HdkB2EWjda1a9AA6MlXtVY3Ox51kZmxbgONwHU6nhnwRT8GTrwe5pTypJlTPJLm7izFlwS6EnjpunEFVPN5VvzHHQR/PAZuMLTW0sTTAOgxAI382lqlCaABkLi7ebz/4LMhfioH4XOlUmmr7qiuR7M0mi7tbXMSNP6tWdjjrn3zI39lj9zT1mNrHA2APgNgczh+8VI+C6DgWYDWfkt6PxPNWLXRVKceChmAShDe7JEsd28pSRPWen4mCWzzFb3dum5cEdV6nn1dFf5pTMXmgQZApwGwLwdMXnUnTYDnJqBVD5Lez4LnBz/6HVT8TXkoPKZ7quvRTEkT1np+FgnM8xpahT3uuu0b/lpz1kv3aQB0GgBbozsdvYIGgAZAfKPgwOLLUI57dWC3/XbwSJa7txRUDPIU7yzmjiukWs8be8BitDlUx9MA6DUAWx9wNA0ADYBoAPpGTsA4qlbf0D3F9WwmGgAdb7ZJa0D6d5+DNYfip/9tbdMA6DUA/VMPpgGgAehoAMYs/4Wp1GaiHHeJZ7LcveXQABTbAKD51Ry/3Z6HmN8//5Lq/+NmHIKSm+r4tMaXcd3hNZQf0GdxR592M1zffbUw7J7iejZT3glECwCNLzpRoPnVHD8073jV4m/Ny8S5x8EEpzmHRe9P7ftDawvl74HDz0f74y+lXedUPZPl7i0n7wSiBYDGa29Aaf1ofjXHn7biKvUGYMnSK1GCUx0v1TfHu/NIPwpnlB9Q/q7uuRCt7+91T209nCnvBKIFgMZHFXZRjqP51RrfP2mmueeBh9UbgLvv32TsXrTmAV13UfqwqPtA84vw95hP/DPcF9WhkTM8lOXuLSnPBCLJzyq2qI3Z2BeaX63xJy9do178G+9fOPHCy2Gi05rHRh3zNt9H+lH4o3WF8Pjo49Zl0BfD7+2e2no4U54JRJKfVWxUYRflOJpfjfEjx59lnnz2hcIYgCeeecEMH3dWBmSn7xMBRenDou4D5QeEx/tmfwTtiac9lOTuLinPBCLJzyq2qI3Z2BeaX03x9qly+8i/SOLfeBbAmoCTLrqi514OaNQxb/kMwOs4f+UGU52CfcS5GoQ3dFdtPZwNJfjXJSXHr/RNu46iEwuaX9/jt51+sLHv9rdv+CvCa/4NwY+6tXs8dflVm/ds9+57ftD1Fb0/te8PzW9a3h488xt47dfqCz2U5O4uKa8Epk181nHaG1BaP5pf7V+kEyWkPN6d70dA60+qb47n+8wAmt+0fN7//pWoAXilNHH2uO6qrYez5ZXAtInPOq7oBILmlwagO0JZVEOC1l/R+1P7/tD8puXzvv2PRQ3AvR7KcfeXlFcC0yY+6zjtDSitH80vDQANAGJO0PqT6pvjPfgMwEU/w3/htBYu677aejgj2qBZC3K3r1d0AkHzSwNAA0ADkK/I+sxRKL+k4fvRJ9+IPvo3o4L6Xh7KcfeXlEcC0yTdVYzPzZXF2tD80gDQANAA0ABEcRHKL2l4vX/ux1ED8GJpeHhU99XWwxnzSGCapLuKiSrsohxH80sDQANAA0ADEMWHKL8k5vVVG01l+nzMAAzVb/NQivNZUtcT6NlHBaMKuyjH0fzSANAA0ADQAETxIcovSQ3A4Ll3YOIfhKYchCfno7YeztrtBCZNuOvzowq7KMfR/NIA0ADQANAARPEhyi9J+X3gA1fBBqCvNmtnD6U4nyV1O4FJE+76/KjCLspxNL80ADQANAA0AFF8iPJLUn7vm3kKagAezUdpPZ212wlMmnDX50cVdlGOo/mlAaABoAGgAYjiQ5RfkvD7mBUPmsrkWZABKNfqaz2V4nyW1c0EJkl2t86NKuyiHEfzSwNAA0ADQAMQxYcovyTh+cGPfAUSf7vW6tDIIfkoraezdjOBSZLdrXOjCrsox9H80gDQANAA0ABE8SHKL0l4vn/BMtQAvFyaMDzoqRTns6xuJjBJsrt1blRhF+U4ml8aABoAGgAagCg+RPklCc9X9z4SMgDlILwrH5X1eNZuJjBJsrt1blRhF+U4ml8aABoAGgAagCg+RPklLs+POf9HkPhvWed5HktxPkvrVgLjJrrb50UVdlGOo/mlAaABoAGgAYjiQ5Rf4vL9wAmfgQ1AecLw5HxU1uNZu5XAuInu9nlRhV2U42h+aQBoAGgAaACi+BDll7h833/w2ZABKAfhc6VSaSuPpTifpXUrgXET3e3zogq7KMfR/NIA0ADQANAARPEhyi+x+H7VRlOdeihkACpBeHM+Cuv5rF1JoGdf/9tcdFGFXZTjaH5pAGgAaABoAKL4EOWXZi6O+nvwo99Gxd+Uh8JjPJfifJbXjQRGJdaH41GFXZTjaH5pAGgAaABoAKL4EOWXOBowsPgy1AC8OrDbfjvko7Cez9qNBMZJcl7nRBV2UY6j+aUBoAGgAaABiOJDlF/i8H7f8AmYAajVN3guw/ktrxsJjJPkvM6JKuyiHEfzSwNAA0ADQAMQxYcov0i8P2b5L0ylVscMQBBekp/Cej6z6wRKCc57PKqwi3IczS8NAA0ADQANQBQfovwi8f/o025Gxd/01cLQcxnOb3muEyglOO/xqMIuynE0vzQANAA0ADQAUXyI8ovE//2H/z1qAP5c2nVONT+F9Xxm1wmUEpz3eFRhF+U4ml8aABoAGgAagCg+RPlF4v/qngtAA1C/3XMJznd5rhMoJTjv8ajCLspxNL80ADQANAA0AFF8iPJLJ/4f84l/BsV/86//nZGvwno+u8sEdkquL2NRhV2U42h+aQBoAGgAaACi+BDll046MPr49bABqATD7/VcgvNdnssEdkquL2NRhV2U42h+aQBoAGgAaACi+BDll0460Df7I6gBeDpfdVUwu8sEdkquL2NRhV2U42h+aQBoAGgAaACi+BDll0gdWLnBVKfMgQxANQhvUCDB+S7RWQI9/vrf5qKLKuyiHEfzSwNAA0ADQAMQxYcovzRzcfPfg2feBon/5nXV6gvzVVcFs7tKYHMyff47qrCLchzNLw0ADQANAA1AFB+i/BKlDf3vX4kagFdKE2ePUyDB+S7RVQKjEuvb8ajCLspxNL80ADQANAA0AFF8iPJLlB707X8MagDuzVdZlczuKoFRifXteFRhF+U4ml8aABoAGgAagCg+RPmlrR5c+FP8639r4TIlEpzvMp0kUMnr/7b4ogq7KMfR/NIA0ADQABSfJ9LyHcov7QzA6CU3oo/+zaigvle+yqpkdhcJbJdUX4+lLXwtcWh+aQBoAGgAaACi+A7ll3a60D/3XNQAvFgaHh6lRILzXaaLBLZLqq/Hogq7KMfR/NIA0ADQANAARPEhyi9v0IVVG01l+uGYARiq35avqiqaPfMEKnr63xZfVGEX5TiaXxoAGgAagOLzRFq+Q/ml1QAMnnsHJv5BaMpBeLIiCc53qVknsDWhvt9PW/ha4tD80gDQANAA0ABE8R3KL636MPCBNbAB6KvN2jlfVVU0e9YJbE2o7/ejCrsox9H80gDQANAA0ABE8SHKL6360DfzFNQAPKpIfvNfatYJbE2o7/ejCrsox9H80gDQANAA0ABE8SHKL836MGbFg6YyeRZkAMq1+tr8VVXRCrJMYHMytfwdVdhFOY7mlwaABoAGgAYgig9RfmnWicEPfwUSf7uW6tDIIYrkN/+lZpnA5mRq+TuqsItyHM0vDQANAA0ADUAUH6L80qwT/QuWoQbg5dKE4cH8VVXRCrJMYHMytfwdVdhFOY7mlwaABoAGgAYgig9RfmnWiereR0AGoByEdymSXj+WmmUCm5Op5e+owi7KcTS/NAA0ADQANABRfIjyS0Mnxpz/I0j8t6zjPD9UVdEqskpgI5HabqMKuyjH0fzSANAA0ADQAETxIcovDb0YOOEzsAEoTxierEh6/VhqVglsJFLbbVRhF+U4ml8aABoAGgAagCg+RPmloRd9B58NGYByED5XKpW28kNVFa0iqwQ2EqntNqqwi3IczS8NAA0ADQANQBQfovyyWS9WbTTVqYdCBqAShDcrkl1/lppJApV9/W+zSYkq7KIcR/NLA0ADQANAAxDFhyi/WC4ePPtbqPibylD9A/6oqqKVZJHAZkHV9ndUYRflOJpfGgAaABoAGoAoPkT5xerFwFGXogbg1YHd9ttBkez6s9QsEqhN9JvXG1XYRTmO5tf3+G2mzTET5x5nliy90tx9/yaDiJWG2Lvu32ROXrpm857t3n3PD7q+ovRhUfeB5tdycd/wCVgd1+ob/FFUZSvJIoHNgqrt76I2ZmNfaH41xfdPmmlOvPBy88QzLxTOCDz+zPPmhPMvM32T6hhZBqGq+EYd89bPZyFQfhiz7D5TqcE1fYky2fVnuWgCtQl+63qLTixofjXGH3DsmYUyAVb89z/2DFXCnVXdFL0/te8PzfPoU78I13VfLQz9UVRlK0ET2Cqo2u5rb0Bp/Wh+tcafdNEVhXkW4IPnw6+RwiSbVx1I9c3xfJ8ZQOui//C/R2vzz6Vd51SVya4/y0UTqE3wW9dbdAJB86s13r4ccM8DD6s3AfY1/1572r+55oren9r315yrNH9X91yAGoDv+aOmCleSJmnNMa2Cqu2+9gaU1t+cq177+9TlV6k3APYNf72Wt+b9SvXNcd3PADTnOs3f1aGRMxTKrj9LTgN6c4w2wW9db9EJpDlXvfb30Lzj1RsA+wmHXstb836L3p/a99ecqzz+rtZG3uOPmipcCZq0VkHVdl97A0rrR/OrOX7cjEPUG4Btpx9MA3Bdvo9ypR7r5fGc+eFphZLr15LRBGoT/Nb1Fr15+6f2toBo/yIjtD81x9vaLXp/at9fnvVVDcIb/FJThatBE9gqqNrua29Aaf1jD1jc048gaQB0fe6/mY+2PuBoGgDPn/1ozlfX/67VFyqUXL+WjCZNm+C3rlcSUO3j4xcvowF45CWT1gjk/e2AaH9qjt/pAytoAGgAovjrldLE2eP8UlOFq0EJolVQtd3XLvDS+iet/IGp4t+0FdWE3h9PK/yNOBqAfJ5BsDU7eeWdNAA0AFEcc69CufVvyTQAxX+D0Y5HXRTVRIU/3hDytLc0APkYgPFHL6f4ey7+9sEHqh+p42vhMv/UVOGKUidgy3eKa3vE37pe6RF0EcZnrNtgtjvo1PyaNcfvn08r/I04GoDuG4Dt5pxqZqzfQANAAxDJWaOC+l4K5da/JdMAFP8ZAGtirAkYv3hpz70c0BDytLc0AN0zAPZpf/vIn+Kvh5NQ/UgZ/2JpeHiUf2qqcEUpE/BXZ9b6iFrb/SI8wk+yh8mr7jQ7Hb3C2HdY9+9e/J+TTSv8jTgaALcGwNagrUX7hj++5q9H+Bucg+pHyvivK5RaP5ecMgE0AAqenms0qeZbtD4bQp72VrsB0Jx7rt1/Q4D2Z5r4chCe7KeaKlxVmgQ0x2h7xN+6XpKM3yTTXGtp/k4r/I04GgC/64P9m29+0vQkGtNXm7WzQqn1c8loMloFVdt9Eki+BCLhj9ZnQ8jT3tIA+F0fUv1w3G3+0P5MEf+on0qqdFUpEvDXp/9trDbBb10vCcItQaD4ovWZVvgbcTQAftcHWl+Mx/KL9mfS+HKtvlap1Pq57KQJaD2/VVC13ScBYATgGr/Wekt6vyHkaW9pAPyuD9f1x+t3zn/SfkTPrw6NHOKnkipdFZoQbYLful42eOcGzxsftD7TCn8jjgbA7/rIuz57fX60PxPGv1yaMDyoVGr9XHbCBLzu6X8b2yqo2u73egP7vn+0PhtCnvaWBoAGwPceyXN9aH8miS8H4V1+qqjiVSVJQLtztQl+63rzbB7OLYtLu5pLciyt8DfiaADkHLGOexejJL2YwbnnKZZaP5eOJqVVULXdJ3n5TV5ofTaEPO0tDYDf9cH+zTc/aH8miS9PGJ7sp4oqXlWSBLQ7V5vgt66XBJIvgUj4t6u5JMfSCn8jjgbA7/qQ6ofjbvOXpBeRc8tB+FypVNpKsdT6uXQkKTa2VVC13SdBuCUIFF+0PhtCnvaWBsDv+kDri/FYftH+TBB/s58KqnxVCRLwhjcA2lhtgt+6XhIARgCu8UPrM63wN+JoAPyuD9f1x+t3zj/an7Hjh+ofUC61fi4/dgIiftK1VVC13WeDd27wvPFB67Mh5GlvaQD8ro+867PX50f7M2b8qwO77beDnwqqfFUxE9D20b+N1Sb4revt9Qb2ff9ofaYV/kYcDQANgO89kuf60P6MFV+rb1Aus/4uP1YCIh7929hWQdV2P8/m4dyyuKD12RDytLc0AHKOWMe9ixHanzHjL/FXQZWvLGYC+AwAf/7X5EH0aH2mFf5GHA1A74pbHvWubU60P+PE99XCULnM+rv8OAnodI62R/yt69XWcL223k61F2esIeRpb2kAaAB6reeS7DdOD4Ln/Lm065yqvwqqfGVgcvgSAJ8ZcPrMAFqfaYW/EUcDQAOQRBB77Vy0P+X4+u3KJdbv5csJCCOf/rexrY+otd3vtYbVtl+0PhtCnvaWBoAGQFvPdHO9aH9K8dWhkTP8VlDlq5MSII1rE/zW9XazWThXcjGR6k8aTyv8jTgagOQ5Y533DmZS/6Hj1drIe5RLrN/LRxPUKqja7pOs/CYrtD4bQp72lgbA7/pg/+abH7Q/hfin/VbPAqxOSEDHp/9trDbBb10vCSRfApHwR+szrfA34mgA/K4PqX447jZ/aH92iq8G4Q0FkFi/t9ApAXHGWgVV230ShFuCQPGNU4OdzmkIedpbGgC/6wOtL8Zj+e3Ue/BYbWSB3+pZgNWhSdIm+K3rJQFgBOAaP7Q+0wp/I44GwO/6cF1/vH7n/KP92SH+ldLE2eMKILF+b6FDAsSn/21sq6Bqu88G79zgeeOD1mdDyNPe0gD4XR9512evz4/2Z4f4e/1WzoKsrkMCaAD4GX+nn/GPQ55ofaYV/kYcDQANQJw67dVz0P6MjK+FywoisX5vIzIBHb7/vzlG2yP+1vX2auNq2XdzraX5uyHkaW9pAGgAtPRKHutM05NxYkYF9b38Vs6CrC5OMjqd0yqo2u7n0TScM76odKq9OGNphb8RRwMQP1es697DKk4PpjjnxdLw8KiCSKzf20iRnNe9NKBN8FvXS9Lym7TQ+mwIedpbGgC/64P9m29+0P6MiP+636pZoNVFJOB1It/pnFZB1XafBJIvgUj4d6q9OGNphb8RRwPgd31I9cNxt/mL04NJzykH4ckFkli/t5I0Oa3naxP81vWSINwSBIpva70lvd8Q8rS3NAB+1wdaX4zH8pu0H+Oc31ebtbPfqlmg1cVJSKdzWgVV230SAEYArvHrVHtxxtIKfyOOBsDv+nBdf7x+5/zH6cGE5zxSIHn1fysJk/OGlwa0CX7retngnRs8b3zQ+uz1+Lzzx/n97i80P1n3V7lWX+u/ahZohWgCWwVV2320ARjvluDQ+uz1eNan2/rsdXyz7q/q0MghBZJX/7eCJlCb4Leut9cb2Pf9o/XZ6/G+55fr021QMu6vl0sThgf9V80CrRBNYKugartPAvKbgND67PV41rff9a09P1n2VzkI7yqQtOrYCppAbYLful7tDVj09aP12evxRa8P7i9fg5Nxf52nQzULtEo0ga2Cqu0+CSRfApHwR+uz1+MlfDnud/37np8s+6s8YXhygaRVx1bQBGoT/Nb1+t5gvb4+tD57Pb7X64f7d2twsuqvchA+VyqVttKhmgVaJZrAVkHVdp8E4ZYgUHzR+uz1eBR/xvvdH3nnJ7P+qoVfLJCs6tkKmkBtgt+63rwbiPN3Jtj+qQe/4bsn0JrtlXiLHeurc30RHwyfzHppqP4BPapZoJWiCWwVVG33SQAYAbjGb+wBi2kAYv40d2svb33A0TQA1/ld3677x/X1W2su5f1XB3bbb4cCyaqeraRM2F9JWZvgt67XdYPw+hgBj1+87K+1htZqr8Xv9IEVNAA0AE5rIJOeqtU36FHMgq0UTWCroGq7T4HGBNo1fpNW/sBUa3WagITPAljMJq+80yn5u849r+93b9r8oPqxJf6Sgsmqnu2gCdQm+K3rJcn4TzI7HnVRVkTTM9cZf/Ryij8f/TuvAVQ/bHxfLQz1KGbBVoomsFVQtd2nAfDfAMxYt8Fsd9CpPSPeaE9uN+dUM2P9Bufkz97xv3dc5wit1UoQ/rm065xqwWRVz3bQBGoT/Nb1um4QXj8bkrQmYPzipXw5oMNLAfZpf/vIn+KfTc2xd2UcUf2oBPXb9ahlAVeKJrBVULXdZ5PLTe4TRpNX3Wl2OnqFse9w7999Ts8/K2AxsFjYN/zxNX9dtexTX6VdC6of1aGRMwooq3q2VAnCl5Ekjl25wWgT/eb1zriWpJG2+RnH2mEN9G4NTF/3K9iAV2sj79GjlgVcaSUIX0AMwJhl96k2ANPW924Dk7yZe9YAayBtDeyx5uegARj5XQElVdeWKkH4BGQA/v5u1QZgKg0A3yzGd4uzBlgDiWtgyuq7IANQDkbu0aWWBVxtJQgfRgzA4Om3qjYAk9fxEUDaRwCMY+2wBnq3BiZ84muQAagE4ZcLKKm6tlQOwjsRAzD6uHWqDcBua3u3gUnezD1rgDWQtgZ2OXUdZADKQ+HVutSygKstB+E6xAD0H/ox1QbgnWtIAGkJgHGsHdZA79bA9vPPgQxAJah/vICSqmtL1aHwdMQAVKYdZsau2qjWBIy/vHcbmOTN3LMGWAOpauDajWZgxmGQAagGIwfrUssCrrY6VD8QMgBBaAbPuV2tARi3mgSQigD4pqnEb5oizuy1otRAsPQ7kPhbzRmYcuCOBZRUZVuaOvymShD+D2IC+hcsU2sA7HcC8I2AJOaiEDP3wVruRg2gv89RDsLnlCllcZdbCcKHEANQ3WOuGbPiQbUm4F1XkTS6QRqcg3XGGtBfA9OvedAMTJuLPQNQC79bXEVVtrNyEK5BDICN1fxpgLdcpr8pSazMIWuANdCNGthlyVpMISDplAAABmVJREFU/IPQlGsjH1Imk8VdbnWofihqACrT56t+FoAvA5A8u0GenIN1prkGpl19vxmYcThsAPp2C99eXEXVtrN3DPdVgvBF1AQMHLFK7csAO19JYtJMTFw765c14L4GdjrmU7D4V4JwkzaJLPx6q0F4A2oAKpMONIPn3qHSBGyzepOZxh8G4jvb+ekG1gBroG0N1FZ831QnHZiBAahfVHhB1bbBUbX6frABCEJT3fsIM2b5/SpNAL8UyP0jCD5KI8asAX01MG3tA2bsfkdmIP7hf/dPCsdr08deWO9WlaHw37MwAX0Hn6Xyy4G2Xb3J7MFnAdq6f5K2PtJmzpizLGpgxrUbzZvnnpGF+JtKUP9WL4ipyj2Wg/DkLAyAvcbA/AtUPgvw9itIGlmQBq/BOmINFKAGrt1odnz/+RmJf2iqQThHpTj2xKKnTi1XgvCprExA/7xPmLGrHlJnBGrXFKBx+Tomn8lgDbAGgBqwj/zHH3lBZuJfCeoPlEqlrXpCS7Vusjo0ckZWBsBep2/OmereE/CmSzeZ6XwpgOQJkCcf/dJEa64B+3G/7J72DzebCPu181p1sXfW/dpHAn+bpQmo7vV+dZ8O4I8EkcA1EzjXzvpNWwP23f5j9j0iw0f+m5/6/1HviKjynVaHwllZGoDN16rNNP0Ll6t6NoBfEUwSTUuijGPtaKuB6df80rz9hMtMdXIWH/V77VH/Fh3573It3F25LPbW8itD9dsyNwFBaOw3Bo4+7ho13xr43qtJZNqIjOtlzbIG4teA/W7/XU65JpNv+IvQjNW9pZ4F2G1/bXinShC+EJFQ+Okh+wNC/QuWmsFzvuv1Rwa3vniTGVobv5lIPMSKNcAa8L4Grt1o7E/62l/1G5h2KMznHXTiN6W99uovgCT23ha2/EbAqx2Sm03hTJtn+g89Z/MPCg2efqsZ88kfmjHL7jNjV27w4hME1gS8h78YyDcF8k2BrAFlNTBj3Qazx5r7zOSLf2gmfPJWs8up68z2888xA9PnZcPd9lnd6P8vl2vDe/aechZox+VaeEWHBHdKPseiG4PYEBvWAGug0DVQHgpPLZAU9uhWpk4tV4PwRzQBHZ1uoRuZuWfuWQOsgWQ1MPKFHlXMAm578vA2lSDcmKwA2DDEizXAGmAN9FoNlGvh3aV3DPcVUAl7d0uDtVlvyeq3AnqtIbhfigBrgDXQEzUwFP6i9J59xvSuUhZ459Wh8J2VYOTxnihkvj7JlzVYA6wB1kCSGthYmjh7XIElkFsbPWH4rZVafQNNAB/RsAZYA6wB1sCWGvhZaerwm6iQvYDA1Jlb842BbHySP2uANcAaqAQjt5QmLKr0gvRxjw0E7C8H1sLLK0Ho/nsC+DRckqfheC7rhTXAGuhGDfx3ZWjkk/yFv4Yo9uDtli8LcvaNgXyEwUcYrAHWAGvAsxqohU+OmjiyTw9KHrfcikD/pHB8JQi/zib1rEn5KKgbj4I4B+usl2rg1UpQv7E0debWrTrA+z2OQN/E+kglCH9NI0AjwBpgDbAGClcDvxw1FO7d4zLH7XdEYNc51WpQ/3AlCJ8iARSOAHrpkQ73ykf2rIHXauDRcq1+XKm07G86cj8HicBfEZiwqFIeqp9YCcLf0AjQCLAGWAOsAXU18GClVl9I4f+rqvGPNAiUg5Gp5Vp9bXUofJ4koI4E+CiIj4RZA71TAy9Ug/r1oybN3Jfv7k+jdoyJRmDzywPhnC0fH/xlJQj/h4aAhoA1wBpgDeRWA/9dCcKfVYZGVvXVwrC0aNHfRhM4R4hAlghMnD2urzZSL9fC0+wzBJWh+j9VgvBXlSB8rBKE9qOFL5MYciMGPurrnUd9zHVxc/3/tjzzajn1l5Va+F37E+/lYGTJqGDkgNKE4cEsKZ3XIgJEgAgQASJABIgAESACRIAIEAEiQASIABEgAkSACBABIkAEiAARIAJEgAgQASJABIgAESACRIAIEAEiQASIABEgAkSACBABIkAEiAARIAJEgAgQASJABIgAESACRIAIEAEiQASIABEgAkSACBABIkAEiAARIAJEgAgQASJABIgAESACRIAIEAEiQASIABEgAkSACBABIkAEiAARIAJEgAgQASJABIgAESACRIAIEAEiQASIABEgAkSACBABIkAEiAARIAJEgAgQASJABIhA3gj8f36RxiQv+EuOAAAAAElFTkSuQmCC;" vertex="1" parent="1">
          <mxGeometry x="240" y="160" width="512" height="512" as="geometry" />
        </mxCell>
        <mxCell id="ThVksF6ZGvTpuZDphex1-2" value="Phenotype data" style="text;html=1;strokeColor=none;fillColor=none;align=center;verticalAlign=middle;whiteSpace=wrap;rounded=0;fontSize=100;" vertex="1" parent="1">
          <mxGeometry x="141" y="-105" width="710" height="120" as="geometry" />
        </mxCell>
        <mxCell id="ThVksF6ZGvTpuZDphex1-4" value="" style="shape=image;verticalLabelPosition=bottom;labelBackgroundColor=default;verticalAlign=top;aspect=fixed;imageAspect=0;image=https://cdn-icons-png.flaticon.com/512/566/566737.png;" vertex="1" parent="1">
          <mxGeometry x="1120" y="160" width="512" height="512" as="geometry" />
        </mxCell>
        <mxCell id="ThVksF6ZGvTpuZDphex1-5" value="" style="endArrow=classic;html=1;rounded=0;strokeWidth=12;exitX=1;exitY=0.5;exitDx=0;exitDy=0;entryX=0;entryY=0.5;entryDx=0;entryDy=0;" edge="1" parent="1" source="ThVksF6ZGvTpuZDphex1-1" target="ThVksF6ZGvTpuZDphex1-4">
          <mxGeometry width="50" height="50" relative="1" as="geometry">
            <mxPoint x="850" y="390" as="sourcePoint" />
            <mxPoint x="1260" y="1010" as="targetPoint" />
          </mxGeometry>
        </mxCell>
        <mxCell id="ThVksF6ZGvTpuZDphex1-6" value="Remove FFPE samples" style="text;html=1;strokeColor=none;fillColor=none;align=center;verticalAlign=middle;whiteSpace=wrap;rounded=0;fontSize=100;" vertex="1" parent="1">
          <mxGeometry x="1021" y="-170" width="710" height="250" as="geometry" />
        </mxCell>
        <mxCell id="ThVksF6ZGvTpuZDphex1-7" value="" style="shape=image;verticalLabelPosition=bottom;labelBackgroundColor=default;verticalAlign=top;aspect=fixed;imageAspect=0;image=data:image/png,iVBORw0KGgoAAAANSUhEUgAAAgAAAAIACAYAAAD0eNT6AAAAAXNSR0IArs4c6QAAIABJREFUeAHtfQm0XFWZddGdqnrv5SVAUBGCrSAOJO9WEkISZt67FRICJBCTCAQZZAigMomINkMGE8IYCAko2KgIToi2A0pLC9gOiICGhG7BtpnEBhRaWP+va/2spjn/OiFlF0Xd+u69+56657u1s1ZWvbrnfvecs7/v23vXXCrxHxEgAkSACBABIkAEiAARIAJEgAgQASJABIgAESACRIAIEAEiQASIABEgAkSACBABIkAEiAARIAJEgAgQASJABIgAESACRIAIEAEiQASIABEgAkSACBABIkAEiAARIAJEgAgQASJABIgAESACRIAIEAEiQASIABEgAkSACBABIkAEiAARIAJEgAgQASJABIgAESACRIAIEAEiQASIABEgAkSACBABIkAEiAARIAJEgAgQASJABIgAESACRIAIEAEiQASIABEgAkSACBABIkAEHCNQCWYG5Vp9bSUI/7UShH+uBKHhf2LAGmANpKwByyH/Wh4Kr67Uhocc0xcvTwSIQCoEdp1TrQ6F11WC8H9SNjqNAs0Sa4A10KkGXikHI+tLExZVUnEUg4gAEXCAwK5zquVaeDeFn4/yWAOsAdc1UA7Cu2gCHPA4L0kE0iBQrYWfdt30vD6FhTXAGmjUQDkI16XhKsYQASKQIQL2NX8+7U9ibhAzb1kLXaqBVyqTRiZmSGW8FBEgAkkR2PKGv06v23GMr+uyBlgDmddAOQjXJOUrnk8EiECGCFSC8N+65PgzJxCum49WWQOqa+DhDKmMlyICRCApApUg/L8kUdUkSmPFR+daa+D/JOUrnk8EiECGCFD8Kf6sAdZAXjWQIZXxUkSACCRFIK/G57wUHdYAayApX/F8IkAEMkSAJEwSZg2wBvKqgQypjJciAkQgKQJ5NT7npeiwBlgDSfmK5xMBIpAhAiRhkjBrgDWQVw1kSGW8FBEgAkkRyKvxOS9FhzXAGkjKVzyfCBCBDBEgCZOEWQOsgbxqIEMq46WIABFIikBejc95KTqsAdZAUr7i+USACGSIAErCtz/yksnz/++ff8nwPzFgDeRTAyh/ZEhlvBQRIAJJEUAbOE/xt3OT+IkBayC/GkD5Iylf8XwiQAQyRABtYBqA/MiXwkfs864BlD8ypDJeiggQgaQIoA1MA0ARyluEOH9+NYjyR1K+4vlEgAhkiADawDQA+ZEvhY/Y510DKH9kSGW8FBEgAkkRQBuYBoAilLcIcf78ahDlj6R8xfOJABHIEAG0gWkA8iNfCh+xz7sGUP7IkMp4KSJABJIigDYwDQBFKG8R4vz51SDKH0n5iucTASKQIQJoA9MA5Ee+FD5in3cNoPyRIZXxUkSACCRFAG1gGgCKUN4ixPnzq0GUP5LyFc8nAkQgQwTQBqYByI98KXzEPu8aQPkjQyrjpYgAEUiKANrANAAUobxFiPPnV4MofyTlK55PBIhAhgigDUwDkB/5UviIfd41gPJHhlTGSxEBIpAUAbSBaQAoQnmLEOfPrwZR/kjKVzyfCBCBDBFAG5gGID/ypfAR+7xrAOWPDKmMlyICRCApAmgD0wBQhPIWIc6fXw2i/JGUr3g+ESACGSKANjANQGfy3fjbp8xnv3GHOfeK682CMy4yu7/vJPPOA480b957nhmYMmvzf/u3PWbHFp651Hz8yhvMP3zzDmNjKW6d8W3F5677N5mTl64xE+ceZ7aZNseg9a093mJgsViy9Epz9/2bMq8nBfj8uRKE/1oeCq+u1IaHMqROXooI6EcAbWAagDcK1Pd/8qA5dflVZmje8aZaq6cWIRtrr3HaiqvMHT99MHPybhVPzfcff+Z5c8L5l5m+SenxRnvB9/j+STPNiRdebp545oXMasn3Pbes75VyMLK+NGFRRT9zcwdEIAMEWhoksVjRALxmAB558lmzdP1NZsKhxybGMG4O7CM5O8ejTz2bGYFrFv3G2q3473/sGc5wj5sfLecdcOyZmZkALXtuXmc5CO+iCchAPHgJ/Qg0N0aav3vdAPzrY783H7v8M5uf0k+DX5oY+5KBfUnh3x7/PY3A8y+ZD55/KcU/CBNhcNJFV2RSO2nq14eYchCu08/e3AERABFAm7FXDcDTf3zRXPOlb5kd9p2fiHhRvJvj37LPPLPy+i+Z3/3hxUzIvPGIWtOtfc2fT/snE39bQ/blgHseeBium+Z6VPb3K5VJIxNB+mQ4EdCNANq0vWgAfvbQI2avIz+Um/C35mzvoz5s7t34KEzmmoS/sVb7hr9WPHg/niGw71Np4Jj2VjPW5SBco5u9uXoiACKANnCvGYDPffMH5k17zfVOdMbNOMR8+tbbYUJPKwR5xdn3RaA13Kvx9g2maN6UY/cwSJ8MJwK6EUAbuFcMgH2a/ZRl/j/atJ8Y6KWXBLadfjANQMLX/xs9b01jjxuA/6Obvbl6IgAi0CCDtLe9YADsx6bs5/PTYtTtuIVnLTNPPpvdR71QkXAZ321sizYfmhvteID0yXAioBsBtIGLbgCs+M866Vw14t/I5+yTP94TJqCxX97Ge92/FScaAN38zdUTAQiBVkJIer/IBsC+0//Ic1aoE/9GDu2zFkV/OaCxV97SAKSpAYg8GUwEtCOQpmmaY4psADS85t+ci3Z/f3jlWvh1XvRRosv4dnvmsfhmAM2Ndqy18zfXTwQgBNAGLqoBuOG276t95N+a0+u+9t3CmoDWvfJ+fPG3WNEAQPTJYCKgGwGUMItoAOxn6rfb89DCGAC7l59v+g1M9qhYuIhH67fX49GcaMdPN3tz9UQARABt4KIZAPu6v09f8oPmpxG/7+IPG7s3lPB9i2/sj7fJHvk38ELz2biO1luQPhlOBHQjgDZu0QzAlTfdVphH/q25XXvLt2gAUn5mvhXLotynAdDN31w9EYAQQImsSAbA/rDPW/c53IkB2G7PQzZ/l4A1GPbngjf+x1ObP6ZnP69v/7bHrvjC182CMy4y9gta0Ly0i99hv/nm10/8Z6FMQLt9JjmGCmDe8Un22u5cdP3trpnkmMQf0vqSzNXuXIg8GUwEtCPQrimSHJMa2PW4RBBJxs+57DOZC+975nzArPniN8xvf//H2MJrz73ypm+Ydx90dObr+fiVN8ReRxLs8jo3Sa22OzevdWc1b7s9JTmGriPJXO3OlfhBWl+7ayY5pp2/uX4iACGQpFnanSs1sOtxiSDijj/y5LOZ/qTv2KkHmWXXftE8+dx/pRZc++zAReu/YMZMPSgzI2B/QfDRp55Nvaa4eHbrvHY1meRYt9bpap4ke213LrqudtdMckziB2l9SeZqdy5EngwmAtoRaNcUSY5JDex6XCKIuONL19+UmcjaR+53378pM5H97r/8wowfXpjZ+pZfd3Nma4uLr6vzktRqu3Ndratb1223pyTH0HUmmavduRI/SOtrd80kx7TzN9dPBCAEkjRLu3OlBnY9LhFE3PEJhx6bicBOmX/i5tf0484b97wHf/2YqR32wUzWmMWvwMVdt+vz2tVkkmOu1+f6+kn22u5cdH3trpnkmMQP0vqSzNXuXIg8GUwEtCPQrimSHJMa2PW4RBBxxu0b8JLsOepc+8jfvqEvzpxpzrEmYMcDFmSy1h/8fIOzdabZW9qYqFzEPZ52Xl/i4u4z6jx0H1HXjXtc4gdpfXHniTpPO39z/UQAQiCqMeIelxrY9bhEEHHGT11+FSyq9jX/LJ/2j1q3fTlgcPfZ8HqL8hXBces06rwonLUcj9pX3OPoPuPOE3WexA/S+qKuG/c4RJ4MJgLaEYjbKFHnSQ3selwiiDjj9inxqP3FPW7f8BdnrizOse/kj7uuqPMmHX5C19abxZ6jrhG1v7jHo66r5XjcfUadh+4z6rpxj0v8IK0v7jxR52nnb66fCEAIRDVG3ONSA7selwhCGt/426dMtVaHBNV+1A95t7+0xtbx3/zuOfilgL5JdbPpsd+pNwFx6zTqvFZstd2P2lfc4+h+484TdZ7ED9L6oq4b9zhEngwmAtoRiNsoUedJDex6XCIIafyz37gDEn+Li/2cvzRP1uOX3PhVeN03fuOfur7urHGIqsu4x7NeT7evF3efUeeh6426btzjEj9I64s7T9R52vmb6ycCEAJRjRH3uNTArsclgpDGz73iekhI7Tf8JfmSH2k9ccf//ek/wN8YeN4a/V8KFLdOo86Li7ev50XtK+5xdF9x54k6T+IHaX1R1417HCJPBhMB7QjEbZSo86QGdj0uEYQ0vvDMpZABsPHSHK7G33fGhdDaF529LLe1Z4VJVF3GPZ7VOvK6Ttx9Rp2HrjvqunGPS/wgrS/uPFHnaedvrp8IQAhENUbc41IDux6XCEIan7rgZEhE7Xf7S3O4Gr/887dCa99j0ZLc1p4VJnHrNOq8rNaR13Wi9hX3OLruuPNEnSfxg7S+qOvGPQ6RJ4OJgHYE4jZK1HlSA7selwhCGt/5wCMgEbXfISDN4WrcfiQwKi9xjr/zwCNzW3tWmMTZZ6dzslpHXtfptLc4Y+i648zR6RyJH6T1dbp2nDHt/M31EwEIgThN0ukcqYFdj0sEIY1vv+9hkIjm+U56+wmGTrmRxuwvH0r4+D4u7VEa931/0vqk/Unj0vWlcen60rjED67nh8iTwURAOwJSg0rjUgO7HpcIQhofvfssSESfeOaF3ET08Weeh9Zuv1BIwsf3cak+pXHf9yetT9qfNC5dXxqXri+NS/zgen7t/M31EwEIAalBpXGpgV2PSwQhjUv7k8al67sel9Ynjbten+vrS/vjeNjRJKL5QfGV+EFaHzo/RJ4MJgLaEUAbSGpg1+MSQUjj6P6l67se175+FB90/70enzf+Ej9I60Pzp52/uX4iACGANpDUwK7HJYKQxtH9S9d3Pa59/Sg+6P57PT5v/CV+kNaH5g8iTwYTAe0IoA0kNbDrcYkgpHF0/9L1XY9rXz+KD7r/Xo/PG3+JH6T1ofnTzt9cPxGAEEAbSGpg1+MSQUjj6P6l67se175+FB90/70enzf+Ej9I60PzB5Eng4mAdgTQBpIa2PW4RBDSOLp/6fqux7WvH8UH3X+vx+eNv8QP0vrQ/Gnnb66fCEAIoA0kNbDrcYkgpHF0/9L1XY9rXz+KD7r/Xo/PG3+JH6T1ofmDyJPBREA7AmgDSQ3selwiCGkc3b90fdfj2teP4oPuv9fj88Zf4gdpfWj+tPM3108EIATQBpIa2PW4RBDSOLp/6fqux7WvH8Vn3IxDOn7OHcWnyPH2lyxR/FF8JH6Q1ofOD5Eng4mAdgTQBpIa2PW4RBDSOLp/6fqux7WvH8Vn4tzjaACCzl/2E1UjQ/OOpwHQTuBcPxFAEIgih7jHXQu8dH1UQOLuM+o8dH40PmpdcY+j8+cdv2TplTQAKQ3AaSuuogFAyJOxREA7AnGFIuo8SaBdj6MCFLWvuMfR+dH4uOuMOg+dP+/4u+/fZPonzaQJSGgCLGb3PPAwDYB2Auf6iQCCQJQwxD3uWuCl66MCFHefUeeh86PxUeuKexyd34f4Ey+8nAYgoQE4eekaWPxt7uPWWdR5aH9HXTfucYQ7GUsE1CMQt1GizpMa2PU4KkBR+4p7HJ0fjY+7zqjz0Pl9iLe/yDh83FmwGEVhVLTjI8efZZ58NptfsUSxkfhBqi90fvUEzg0QAQQBtIGkBnY9LhGENI7uX7q+63Ht688KH2sCTrroCr4c0OGZAPu0v33kn5X429yh9Sfxg1Qf6PwIdzKWCKhHAG0gqYFdj0sEIY2j+5eu73pc+/qzxse+rn3q8quMfYf7ttMPhgUKxTfveIuBxcK+4S+L1/xb84XuT+KH1vla76PzqydwboAIIAigDSQ1sOvxVkJIen/07rMgkbCPPJPOmdX5jz/zPLR2u/es1sLrvNSTWLrmD6mu0PkR7mQsEVCPANpArgVeur5EENL4W/aZB4nopsd+lxvxb/ztU9Dat9/3sNzWLuWF4zoMhWv+kOoAnV89gXMDRABBAG0gSaBdj0sEIY2/Y+b7IRH93k8eyE1Ev/svv4DWvsvMI3Nbu5QXjtMAWO6Q6gDlL4Q7GUsE1COANpBrgZeuLxGENL7nkadBInrFF74ukpS0hrTjl33uVmjtex/14dzWnnbPjJNFsZsYueYPaS/o/OoJnBsgAggCaANJAu16XCIIafyIc1ZAIrrgjItyE9HDP3IBtPajPrYit7VLeeG4X0IflQ/X/BE1b+M4Oj/CnYwlAuoRQBvItcBL128QQdrb89bcAImo/TGa3/7+j10X0n9/+g/wu9w/efU/dH3dafPEOD8NgWv+kPKOzq+ewLkBIoAggDaQJNCuxyWCkMa//P17IANg8bvypm90XUjtSw9o7r56x790fd1SPjjup9BH5QWtQYkfouZtHEfnR7iTsURAPQJoA0kN7Hq8QQRpbx958hn4y2PefdDRmX65irQX+9HDd846CjIAA5MPNI8+9SwNwPO6BFeqjW6Pu+YPaT/o/OoJnBsgAggCaAO5Fnjp+hJBxBmfuuBkSEwthhet/0LXxPSCtZ+D1ztt0SldW2+cHPAcnUbENX9IdYHOj3AnY4mAegTQBpIE2vW4RBBxxu1r4SgOY6YeZOzH8uLMh5zznR/9wgzuPhte74XXfN75WpF9MlaHIUD7RuIHqQ7Q+dUTODdABBAE0AaSGtj1uEQQccZ/+tAjsKBaHHc8YIF54N8ecyasv3r0CfO2kYWZrPVnDz3ibJ1xMOc5OgReypNr/nA9P8KdjCUC6hFw3cAaDIAlmRlHYN8H0MCxdtgHzYO/zt4EWGMRzDs+E/G3330gESvHiyHQrvPYqPu0txI/SOtPO28jTj2BcwNEAEGg0Qhpb6UGdj0uEUTc8eu++p1MxNXiuMO+880377o3M5G1T/vbZxfS5qg17jO3fi+ztcXFl+cV01C01lbS+xI/SHWTdL7W8xHuZCwRUI9Aa0MkvS81sOtxiSDijtufSM3q6XWLoX2d/uNX3mDs5/XjrqH1PPtu//OvvjGT1/wbeX17fVFXP7HQuifeL5YRaNRV2luJH6R6STtvI049gXMDRABBoNEIaW+lBnY9LhFEkvFLb/xaZo+yG3jaR+6X3PjVREbAmobLP38r/FG/xhqab/P86uIkueC5OoxCc22l+VviB6kO0szZHINwJ2OJgHoEmpshzd9SA7selwgiyfiTz/2X2e2QYzM3ARZX+7vs7zvjQmO/v//2H99v7C/52Uf49r/92x6zBmT+6RfC3/AXlccJhx5r7B6TYMJzdQhxXnmKqrW4xyV+kPYVd56o89QTODdABBAEohoj7nGpgV2PSwSRdPxL37vbiQGIi6er86q1uvnKHfcUTvxd4dUr103aH63nozhJ/NA6X+t9dH6EOxlLBNQjgDaQ1MCux1sJIYv7R5+7snAm4JjzLi6c+Ntco/Xb6/Fov6D4SfwgrQ+dXz2BcwNEAEEAbSCpgV2PSwSRZtx+PfA7Zr6/MOKy84FHGLunNFj4HoPWb6/Ho/lF8ZP4QVofOj/CnYwlAuoRQBtIamDX4xJBpB3/wc83mK33OEi9CbDfUPj9nzxYSPG3uUXrt9fj0/ZHIw7FT+KHxjxRt+j86gmcGyACCAJoA0kN7Ho8ihiyOL7+y99WLzB2D1lg4es10Prt9Xg0ryh+Ej9I60PnR7iTsURAPQJoA0kN7HpcIgh0HMUn73h0/77H542v9vnR/KL7l/hBWh86v3oC5waIAIIA2kBSA7selwgCHUfxyTse3b/v8Xnjq31+NL/o/iV+kNaHzo9wJ2OJgHoE0AaSGtj1uEQQ6DiKT97x6P59j88bX+3zo/lF9y/xg7Q+dH71BM4NEAEEAbSBpAZ2PS4RBDL+yJPPqn8PwKNPPcv3AASh+jyifRoVj/SHjY26btzjEj9I64s7T9R5CHcylgioRyCqMeIelxrY9bhEEMj43fdvggkuLo6uzrvngYdpAGgAIusY6Q8bi9atxA/S+tD51RM4N0AEEATQBpIa2PW4RBDI+PLrboYJDsUXjV95/ZdoAGgAIusY6Q8bi9anxA/S+tD5Ee5kLBFQjwDaQFIDux6XCCLt+FN/+JOZOPc4mOBQfNH4oXnHG7uXtDj4Hofi0+vxaH5R/CR+kNaHzq+ewLkBIoAggDaQ1MCuxyWCSDu+6vpb1It/I7erP/sVGgA+C9C2ntP2RyOuUWNpbyV+aMwTdZt23kYcwp2MJQLqEWg0QtpbqYFdj0cRA3L8a//0YzMwZVZbwkyLU55xo3efZW79wY8LaQLyxLUIcyN9YmNRDCR+kNaHzq+ewLkBIoAggDaQ1MCuxyWCSDJunyq3j/yzEH/787+HnPoJ6Kd9G9fYZtocmGitCbj4hi8X7uUAtH57PT5Jf7Q7F8VP4od2czYfQ+dHuJOxREA9AmgDSQ3seryZDNL8/ZvfPWfsu/3tG/6yfM3/fWdcuPkR9+PPPG/+8Z77zKc+c4s56mMrzL6LP2zsj/O8ee95m42GNRv2b3vMjtlz7Lk25olnXth8jfmnXwgbgEae7R5XfPrmzXu2e0+DmU8xjX3xNt1HHdFcorhL/CCtD51fPYFzA0QAQQBtIKmBXY9bgnjoN0+Y6776HXPy0jWmfsJHzbsOOvqvAovuL2385791Z2bieuM3/ikzA5B0Pw2DYjG12FqMr/vadzdjLpEzx1/KrAZ8xTJpPbWeL/GDtO/W6yW9j3AnY4mAegSSNkzr+VIDuxr/yv1Pm9OuvMVMXbgkN3FsxaJx3/6U8JPP/Vdm5G+v9XfhIu/2uceiJebiG75kHv6PpzPbq0T4HPfLVDRqPu2txA9SvtPO24hTT+DcABFAEGg0QtpbqYGzHr/pp4+Z+eddaezP3KZds+s4+3KCRFxJx5euv8nb/dr3KJyybI355SOPZ77vpDjx/O4aBLSXJH6Q8onOj3AnY4mAegTQBpIaOKvxb/3rC+aE1Z8zY/fA3xCH7rlT/NtGFpr/+M8/Zi6Ev/39H8344YXemgCLiTUCF677gnny2dfeuyCRN8e7K9Yu8O7UC3HGJH6Q1hxnjk7nqCdwboAIIAh0ao44Y1IDZzF+/V3/Zt499wSvxa+BlX19XCKttOPXfuU7KjCYPP9E85MNv3aGQ1r8GJe94WjUfdpbiR+knKWdtxGHcCdjiYB6BBqNkPZWamB0/Pwv3GHGTjtYhfDNOulc56I384RzVGAxbsYh5nPf/IFzPCSB4Hj2ot+MaVreaMRJ/NA8V7u/G9dJe6uewLkBIoAgkLZxGnFSAyPjH/30P5r+SQeqELwdD1jQlXfGb/ztU2an4QUqMOmfNNNceuPXaAKedyvC7YSxW8caPJD2VuIHaR9p523EIdzJWCKgHoFGI6S9lRo47fjpa7+mQuQsblvvcZC5/cf3d03ovv2j+8xYj98E2VpLl3/+1q5hIwkGx7M1I625Tnpf4gcpX0nnaz1fPYFzA0QAQaC1IZLelxo4zbh92r9v0kwVBsB+Tv4L3/7nrgucfXo9i28sTJrvNOfbZwI+94/ZfS+CJAocz1bkO+GZph6aYyR+6DS3HWu+Vpq/Ee5kLBFQj0CapmmOkRo46bh9w5+W1/wHd59tbvrOD7su/g1StKJq19CcD1//tu8J+OlDj+SGVQMz3mZrDtB6k/hByhc6v3oC5waIAIIA2kBSAycZ/9bDL6h5t/+O+7/P2KfiJYJyPW6/MniH/earMAFT5p/IjwgW7P0ArvlD6h90foQ7GUsE1COANlASgZfOtZ/zR9fTjfjwg2d79aU3D/76MTN83FkqsLto/RdyN02SqHA8/rMEaL9JnCDlAp1fPYFzA0QAQQBtIKmB445/8WePe/8lPzvsO99cedNt5uk/vuidiNk12TfbvXWfw702AvYXDjc8ym8MlIRNy7hr/pBwQOdHuJOxREA9AmgDxRV46Tz79b7oWlzFv2WfeebjV95gfv3Ef3on/K0E+W+P/96ce8X1m38MyRUe6HVPW3GV9zi24sr77Z8VQGtB4gUJd3R+9QTODRABBAG0gaQGjjNuf9jHt+/2H5h8oDng2DPN2lu+ZezX8EpE5Nv4vz/9B3P1Lf9o9j/2DGP3guY5y3j7lcH8AaH2gupbHUnrQetC4gfX8yPcyVgioB4B1w0sNbgd/9CaL+UmUKN3n7X50fLEuceZ2Sd/3Jx5ybXG/pSvhkf7Ejk2xu2zAvYTA2esXr95j3avb957Xq4fI7z4hi+rM1UNPHn7v+bFNX9IWKPzqydwboAIIAigDRRH4KVzJhye3U/6BvOONyuv/5K554GHjX0ULBEIx/+XzNthYTG0WFpMh+Ydn5lRm7bolExyg9Zvr8e3y3mSYyh+EjdIa0HnR7iTsURAPQJoA0kNLI3ffO/jplqrw8JiPw9/yY1fNb/7g39v0JNITMv4U3/4k1n92a8Y+6wJWjc25/ZrjdG9o+vo9fi88Zf4QVofmj/1BM4NEAEEAbSBpAaWxs/7h+/CYmLF/7Y7fwqLiUQ2HH/t2YKv3/mTTEzAZ279HpwztH57PR6taRQ/iR+k9aHzI9zJWCKgHgG0gaQGlsbnn7cGNgD8wZnOT+NLJJpm3L6Gj9bOKcvW0AAEIYwjkoc0uW+OQea2sRI/NM/V7m90fvUEzg0QAQQBtIGkBpbGp33goxAB2tf8+bR/9w2AfTnAvpkQqR/708btSD3JMWR+xoa54y/xg1QLaA4R7mQsEVCPANpAUgNL42+beRQkIvbNaRJJcNyNQVjx6Zuh3L3roKPh3KH12+vxaG+g+En8IK0PnV89gXMDRABBAG0gqYGl8e32mgeJiH2HukQSHHdjAO6+fxOUu+33PQzOHVq/vR6P9gaKn8QP0vrQ+RHuZCwRUI8A2kBSA0vj6E/a/uZ3z8EiIpEMx9sbiEefehYyAPbNmyi2aP32enze+Ev8IK0PzZ96AucGiACCANpAUgPCoW2gAAAgAElEQVRL4+j8EkFwvL14Z4VL3vlD5+/1eLQOUPwkfpDWh86PcCdjiYB6BNAGkhpYGkfnlwiC4zQAaI0VOR7tDxQbiR+k9aHzqydwboAIIAigDSQ1sDSOzi8RBMdpANAaK3I82h8oNhI/SOtD50e4k7FEQD0CaANJDSyNo/NLBMFxGgC0xoocj/YHio3ED9L60PnVEzg3QAQQBNAGkhpYGkfnlwiC4zQAaI0VOR7tDxQbiR+k9aHzI9zJWCKgHgG0gaQGlsbR+SWC4DgNAFpjRY5H+wPFRuIHaX3o/OoJnBsgAggCaANJDSyNo/NLBMFxGgC0xoocj/YHio3ED9L60PkR7mQsEVCPANpAUgNL4+j8EkFwnAYArbEix6P9gWIj8YO0PnR+9QTODRABBAG0gaQGlsbR+SWC4HixDQDz6za/Er5o/0r84Hp+hDsZSwTUI+C6gaUGR+eXCILjbgWC+XOLr+/1i+Zf4gdp/+j86gmcGyACCAJoA0kNLI2j80sEwXG3AsX8ucXX9/pF8y/xg7R/dH6EOxlLBNQjgDaQ1MDSODq/RBAcdytQzJ9bfH2vXzT/Ej9I+0fnV0/g3AARQBBAG0hqYGkcnV8iCI67FSjmzy2+vtcvmn+JH6T9o/Mj3MlYIqAeAbSBpAaWxtH5JYLguFuBYv7c4ut7/aL5l/hB2j86v3oC5waIAIIA2kBSA0vj6PwSQXDcrUAxf27x9b1+0fxL/CDtH50f4U7GEgH1CKANJDWwNI7OLxEEx90KFPPnFl/f6xfNv8QP0v7R+dUTODdABBAE0AaSGlgaR+eXCILjbgWK+XOLr+/1i+Zf4gdp/+j8CHcylgioRwBtIKmBpXF0fokgOO5WoJg/t/j6Xr9o/iV+kPaPzq+ewLkBIoAggDaQ1MDSODq/RBAcdytQzJ9bfH2vXzT/Ej9I+0fnR7iTsURAPQJoA0kNLI2j80sEwXG3AsX8ucXX9/pF8y/xg7R/dH71BM4NEAEEAbSBpAaWxtH5JYLguFuBYv7c4ut7/aL5l/hB2j86P8KdjCUC6hFAG0hqYGkcnV8iCI67FSjmzy2+vtcvmn+JH6T9o/OrJ3BugAggCKANJDWwNI7OLxEEx90KFPPnFl/f6xfNv8QP0v7R+RHuZCwRUI8A2kBSA0vj6PwSQXDcrUAxf27x9b1+0fxL/CDtH51fPYFzA0QAQQBtIKmBXY9LBMHxYgsUWr+9Ho/2B4qfxA/S+tD5CxD/ciUI/1QJwscqQbixEoT3VoLwa5WgvqISjCwuByNTS+/ZZwyiEYwtMAJoA0gN7HpcIgiO0wCgNV7keLQ/UGwkfpDWh87fQ/GPVYP69ZUgXFSaPLxNgSWNW0uCANoAUgO7HpcIguM0AGiNFzke7Q8UG4kfpPWh8/do/H+Xa+Hd5SD8YGnXOWOT6AXPLRgCaANIDex6XCIIjtMAoDVe5Hi0P1BsJH6Q1ofOz/jwL5Ug/FJ1KJxVKpW2Kpi8cTsSAmgDSA3selwiCI7TAKA1XuR4tD9QbCR+kNaHzs/40DRhsKlcGzm2tGjR30q6wfGCINCU/OZCiP231MCuxyWC4DgNAFrjRY5H+wPFRuIHaX3o/Ix/nQFo8P6j5Vr9OBqBgoh8p22gDSA1sOtxiSA4TgOA1niR49H+QLGR+EFaHzo/49sagNeMQK2+YVRQ36uTfnBMOQJoA0gN7HpcIgiO0wCgNV7keLQ/UGwkfpDWh87P+A4GINg89mqlFn6xNHX4TcqljstvhwDaAFIDux6XCILjNABojRc5Hu0PFBuJH6T1ofMzXjQAm58NKAfhH6rByMHtNITHFCOANoDUwK7HJYLgOA0AWuNFjkf7A8VG4gdpfej8jI9nALbg9Gq5Vl9bmjq1rFjyuPRmBNAGkBrY9bhEEBynAUBrvMjxaH+g2Ej8IK0PnZ/xiQxA402C9/fVZu3crCP8WykCaANIDex6XCIIjtMAoDVe5Hi0P1BsJH6Q1ofOz/hUBsCUg/C58qSZU5TKHpfdQABtAKmBXY9LBMFxGgC0xoscj/YHio3ED9L60PkZn84AbMHt/275AqGGnPBWGwJoA0gN7HpcIgiO0wCgNV7keLQ/UGwkfpDWh87PeMgA2JcEXq4Mjbxfm+5xvVsQQBtAamDX4xJBcJwGAK3xIsej/YFiI/GDtD50fsbDBsCagFcqtZEFFFWFCKANIDWw63GJIDhOA4DWeJHj0f5AsZH4QVofOj/jMzEAm58JqA7VD1Qogb29ZLQBpAZ2PS4RBMeLbQCY33zz65o/pPyi84+9eJPJ8/+e120yyP8Z6zeYPa66z+x+6Y9MbcX3zXs+epN5xwmXm+0P/6gZmHFY41373bp9qTxheHJvK6qy3aMN5FrgpetLBMHxfAWC+Bcbf9f8IdUPOn+e4m/nRsQ/TuzklXeaXU5dZ7atH98tE/Bs/9CstymTwd5dLtpAkkC7HpcIguPFFiDmN9/8uuYPKb/o/EU3AM0mYfLFPzQ7HbPS9E892KkZqNbCn5aGh0f1rqoq2jnaQK4FXrq+RBAcz1cgiH+x8XfNH1L9oPP3kgFomIE9rv6FecdJa8zAHoe6NAKXKJLB3l0q2kCSQLselwiC48UWIOY33/y65g8pv+j8vWgA/moE1txnxh+93FRrdRdG4NVqbWRe7yqrkp2jDeRa4KXrSwTB8XwFgvgXG3/X/CHVDzp/LxuAhhEIln7HjNn3/ZmbAPsDQqWJs8cpkcLeXCbaQJJAux6XCILjxRYg5jff/LrmDym/6Pw0AK+9EXHa1febty74eOYmoDoUXtebyqpk12gDuRZ46foSQXA8X4Eg/sXG3zV/SPWDzk8D8PpPIrzztPWmku1LAv9Tro3MUCKHXV7mlP3ebL88oRqEHykHI+vLQXhnJQg3VoLwsUoQ/mnz1ywGmX1RQ+buDm0+DfHbTJtjJs49zpyybI2554GHjURIHC+24DG/r88v2sOowUfnpwF4vQGwLwvY7xLomzI7Q72oP1BatOhvu6yuHk6311791Vo4txyEV20R+lfRAmZ89wxS/6SZ5qSLrjBPPPMCjcDzrxcCCmNv4oHyDw3AGwW48dp8nrcTzvuqqU4+MDMTUB4Kj/FQkbuypK1G1er7VWsj/1AJwpfQhmF89wQ/Cuv9jjnd/OZ3z9EE0AT0fA1E9Ujc4zQAfhqAxjMBGX5C4Nel0rK/6YriejHJrnOq5WBkSSUIfxu3GXhe/uIeNwf7HPUhmgAaABoA8CVKGgB/DYA1AfZbBONyYozzFnmhzU4X8drT/GdVgvD3MQDJElxeCySjpPmiCejNp735csf/5j1pz7SeTwPgtwGwJmD7+edkoy21+oZSqbSVU/3N8+LVoZFDtryBLxvAuixorc3J+/IzEjQB/ysGFMbewwLlCBoA/w3AtLUPmLH7H5WJphXyFwPtjx9UgvCbaDMwXhZcHzGiCeg94aPZeS3naD/SAPhvAOyzAEMXfTujjweO3JLng/TM57Zfd1gJwv9CG4HxOsW/kbe9jvyQefSpZ3v+NWEKY2+ZoUb9p72lAdBhAKwJGH/kBVk8C/CX0nv2GZO5EHf9ghMWVbZ8nI8f5eNLFZsbY9KiD5nbNjxnJFLLcvz+p3pLcFoNRlrhYdxrhrsVz6T3URylXpDWg87P7wGIb0D2uOo+MzD1ENgElIPw+K7rdaYTBvtuWx0a+QlafIzX/ai/Xf5oArprSNrlgMfi95UksNI4ijUNQHwBto/C8/7/9hMuz8IA/DBTPe7mxQamHLhjJQg3oYXP+PgkpQ0rmoDumQBtteHbeiWBl8bR/dAA5C/qSUyF/c2AgWlzURPwcmnC8GA3dTuTuaoTh3etBOETaNEzvrji38gtTUB3TEADb96m6ylJ4KVxFHcaAF0GwJqFnY5ZiRoA+xPEB2Uiyt26yJZH/hR/vt4fu/hrCz9kvv6rZ/meAIdfGIQKUK/HSwIvjaP40QDoMwCTL/5hBp8IGLm0W9qNzxPsuy2f9k/3CAMlCO3xfCbA7TMB2usj7/VLAi+No+unAdBnAOyzAOMOPDH2A6H2NVJ/ABfmblxhwqIK3/BH8W9fxPFwoQlwZwKQvDA2hD+2imJIA6DTAOyy5GrQAISvlGqzRndDwqE5tnzUD90s43v8pQO+HODGBKAC1Ovx0iN8aRzFjwZApwGYvOpOWNPKE4YnQ+LsOrgSjBxWCUL3n/OffrjpP/RcM/q4dWbw9FvNmE/eZcYsu8+MXbnB5P05VTv/1qs3md3W6izUJO9wtefar73En95q/8wAnwnI3gSgAtTr8ZLAS+MofjQAenl19F7vw0xArX6kaw1Pff0tX+/7J7TAo+Kre8w1/QuXm8GP3e6FyEcZDSv+Qz0i/g2zQBOQvVBLQpJ2PKq/eLy9CW3FJS3ujbjW6yW9TwOg1wC85bCzMAMwFC5NLdCuA119t391xvvM6OPXmzGf+qXXwt8wBO+9Wm+BNgQ9zS1NgA4TkFRweP7rjUFDyNPeonjSAOjl17d/8DLMAAThl13reKrrb/lVP3Rzr4+fdKAZOOJiM2bFgyqE3xqAd12ltzjTiH5rDE2A/yYAFaBej08r/I04FD8aAL0c+96P3fJ6jUv4Pi/75vpUAu00aK+9+rP+Sd/q3keawXPvUCP8Vvx3ulxvYbYKOXKfJsBvE4AKUK/HN4Q87S2KHw2AXp6tLbsdMgCVIHzIqZanuXi1Fp6FFnVzfP/BZ5sxKx5QJf5vunSTmX6t3sJEBL9dLE2Avyagudf49+uf3o+DR1rhb8TFmaPTOTQAenl290t/BBqAkcfTaLS7mKlTy5UgfKpTwSYZ65/3CTN21UOqxN8++q9do7co2wl4FsemX/OgGXfQErDg2xM0PyKY3mAk6Uee+8b6awh52lsUUxoAvVw7/ZpfQnxYHQqfdyfmKa5cDkaWoAXdiB+Yf4E64bfi//Yr9BZkFkLf6Ro0AemFOq3ASHGNfuPtG8U9DiYSvtJ4nDk6nUMDoJdvp6y+GzIAlSD8fylk2lnIVpUg/G2nYo07Zp/2H7tqozoDsO0lm8w0PvXf8Sc3+XKAfyZAEimOu8tZXE6MOo8GQK8BeOeHrkMNwJ+cqXnSC48Kwv2jijTJ8ereR5gxy+9XJ/720f+ua/QWY6dH7lmP8ZkAd4JCsdaFbRJubHcuDYBezn3zoaeDBsCj3wOoDoWfbVegiY5NOlDdu/2t8Nv/26zmo/8kRoHPBOgSKhoLN/lKxI9tPiZGA6DTAMxYt8H0Tz0YMgBWc5M+UHdz/juG+ypB+CJazPZz/g1B1Xa785U6CzGJaGd9Lp8JcCMqFGs9uKKcSQOgk3eHzv8mJP6b66ZWX+hG0BNetVoL56KFXJk+X9WX/LQalMnrdBZi1qKe9Hp8JkCPWNFYZJ8rlDdpAHTy7t8dtxo1AK+Ugn23TSjVbk7P4hf/7Nf7toqqlvvbX6qzCJOKtavz+UxA9sJCsdaBKQ3Aay+hpuV6V5zk+rrbjBwLGoD6z92oeYqr2m8kQgrZ/rCPlu/2b1eovf6Vv1k0C58J0CFYNBbZ5gnhTRvLZwD0PfiauuZeU6nVQQMwsjyFVDsImbLfm9Gf/O1fsEzto39rCKas11eEWYh21tegCchWXCjW/uNJA9B7zwC8++zPg+IfmlFD4d4O1Dz5JatD4Sy0iH3/Sd92j/obx8atpvhnaQRoAvwXLRqL7HKEciefAdDHvzssPA81AC+WhodHJVdrBxHVofB0qIinz1f5pT8NAzCeP/rT8Yt/0pgDvicgO4GhWPuNJcSdfAkgc+5Jw1eJYq7daAb2nI8ZgKH6bQ6kPN0ly8HIeqSI+w89V/XT/+/kl/84aUKaAL+Fi8Yim/wg3Glj+QyArmcAJn3qnzDxD0Jjv3I/nVo7iCoH4Z1IEY8+bp1qAzDhal0FmMitXpfv3vhyQDYiQ7H2F0eEO2kA8uWnNFy6y5KrYQPQN3n4HQ6kPN0lK0H4MFLEg6ffqtoA8PP/bpuQzwT4K140FnhuEO6kAXDLPWkEXorZbs6pqAF4NJ1SO4qqBOETSBGP+ft7VBuAqfwEgJOXAJobic8E4EJDsfYTQ4Q7aQB0GQD78799U2ZDBqAchNc4kvJ0l60E4X8hRTxm2X2qDcA0GgDnBsCaAT4T4KeA0VhgeUG4kwZAlwGY8ImvQeJv810dGjkknVI7iqoE4ctIEY9duUG1AZjBn//tigGgCcCEhkLtJ34Id9IA6DIAOx29HDUAL5cmDA86kvJ0l0ULuPFxOq23zU9V82/3Deny5QC0lhkfogTH+Da/+OdzXY1Z+vNcH8Bp4tyxByyG6rtcC+9Op9IOo9Di1Cr8jXVrKsCirJUmgEKL8g7jM6qhWt1U9zva2G9zHfzwl83YT/2qq4ZAC6dNvezHkPhvqddPOJTydJdGG6khpFpvtRRg0dZJE5ARgSt7xInyDePd1k1190NM/2GfNINn3NaVL3jTwmu7nn4DbADKtXD3dCrtMAptKK3C31i3lgIs4jpdvjEQrWvGuxUa4us/vtW9jzD2V15d/tCbFl7b/vCPQgagGoR/LJWW/Y1DKU93abQRG0Kq9VZLARZ1nXwmwH8hQDmC8bpzXN1jntn8hW8O3vCtgddm2K//nXYoZAAqwcgt6RTacRTanFqFv7FuDQVY9DXSBOgWCJRDGK8j/5ufETjt5kzfI6CB24Jl3wXFPzTl2sixjqU83eXR5msIqdZbDQXYC2vkywE6RADlC8brz3PfrA+bsRf+JBMjoIHb3n7C5agBeHVgt/12SKfQjqPQhtQq/I11ayjAXlkjnwnQLw4onzBeRw1U95hrRp9yE2wCNHDbuFknoQbgIccynv7yaMM1hFTrrYYC7KU18pkAHQKA8gbji5HngfkXGOTL4La+eJPZdvUms90lm8xbLt1k3nb5JmN/oXXi2k1mDw++pG3a1feb6qQDQQMwcml6hXYciTaiVuFvrLuXxFXLXvlMQDHEAeUWxuuog76ZpxhXXyhkTcHOV24yk69x/yVl7fjxvR+7BRT/0PTVRuqOZTz95dEmawip1tt2SeexfJqtGXc+E6CD/FH+YHwx8lzd+0gz5oIfwy8JdNKRN1+6ybzrqk1mehefGRh/5AWoAfhLadc51fQK7TgSbcBOCdMw1iw6/Dt/4W/OAU1AMcQB5RjG66iD6p4LzZhP3uXUBFhNsS8Z2JcJpnXBCAzuswg1AN9zLOHY5dHm0iDyndbYLDj82y8DYPPBlwN0kD/KI4wvRp6rM97n/JmABp9ve8km8+6r3HHWlNV3o+JvqrX6mZhCO45GG6+RDK23FH13DZQVttYEbDd7CdyMaK0zvhgixTy6zWN138Wmmz8T/9bLNpnd12XPY+887Vqcc4Zm7uZYwrHLo82gVfgb685KpHid7BuwGdMZ6zaY8YuXWkeNNyW/P58Ysgac1kBf/WTo0wENfo57u83qTWbC1dly0JsPPR3F6ClMnbsQTQOQbdE0ixb/zh7byavuNPZ3ubc+4GjTN+UgtEEZTyFkDTiqgf6Fy52/H6DVINhPDGTBu/YBR//uc6DaqA6Fn+2ChGNT0ABkUzBZFB2vwVywBlgDWdbAjPUbzB5X3WemrL7LTPzkreadp64zb53/MTMw43BI3GLpRq1uBj/0pa6bgLddscnMuA6ro6Hzv5kFPoswde5CdKxEdnCIrQ5M2/0sm43XwpqO+BE/1kD3aiBYdrsZv3iZGZg2Nwuxa3uN6tRDzdgLf9p1E7Dj5ZgJ+LvjVrfdTwK9fKUU7LttFyQcmyLBhtoCok3wW9dLwuke4RBrYs0a8K8G7Mdtdzl1nRm95/y2HI9qRP/BZ3fdAFiet98qmLbethk5FsSi/nNMmbsUjSa3VVC13U9bIIxL31zEjtixBvyrgenX/NK8/YTLTN/kWaD4vfFTBoMf+UouJiDNewL2WPNzU0HfbFwLl3VJwrFpaAD8a0SSI3PCGmAN5FUDtRXfN2P2PSJTE1Dda1FXPxXQ/EB0t7XJaundZ38e3vuooXBvTJm7FE0DkKw48mpKzss8sQZYA92qAfsjOG857CxYCJv1ZeCDn87lWQD7EcGp6+PXzg4LzkP3/WJpeHhUlyQcm6Y5QWn+bnZaGv/uVkNxnvgNSKyIFWsg/xqYce1GM/7IC1Ex/N/46YebsZ/6ZS4mwH5ZUKyaunajGUDfCzFUvw1T5S5GpxH95hiNot+85lhFAX6khHPEbD7iHI+kiBNx6mIN7HgE/IM4fzUBeT0LYDn/vTG+KGjSijv+utZmnUvydzkYWdJFCcemSrKxduc2i6nGvynOFGfWAGuANRBdA/aZgLfMOxMWRqsf1f2OzuUZAKtN41bLPyC085Kr4X32TR5+B6bKXYxuJ+pJjmkU/eY1s/GjG5/YEBvWAGvA1oD9PY6x+x8Fi6PVlsGzv52bCbC/Itipprc76FR0j492Ub7xqZKIfbtzm8VU49+dioFjnZuF+BAf1kDv1EBtxR2mOulAVCBN/9zzcjMA9hcEp0f8jLD9GGTflNnQ/spBeA2uyl28QjtRT3JMo+g3r5kE1jsExlwz16wBrAZ2OmYlJJBWW6q7H5LbRwIt978r4ieEJ3zia/jehkYO6aJ841MlEft25zaLqca/SQgYIRA/4sca6J0asC8FwO+Sty8DnHFbbs8CvPnS9vmyPzLWTuMSHHu5NGF4EFflLl4hwebagqNR9JvXTPJq3wzEhbiwBlgD7Wpgl1OuaasFSbSkf8Gy3AyA5f/J696YW/Q9DuVaeHcXpTubqZIkrd25zWKq8e92Bc5jb2wOYkJMWAOsAVsD9rcD0B8Q6tv/mFwNQOtXBE+97MewqakE4SeyUeUuXqWdqCc5plH0m9dMUiOpsQZYA6yBZDWw41EXYYJZq5sxy+/PzQS8peVlgF1PvwHbTxCa8qSZU7oo3dlMlUTs253bLKYa/2bjJ2t84kW8WAOsAftTwu30IMmxwTO/kZsBsFo1renTANsf/lFoP+Ug/EOpVNoqG1Xu4lWSJKzduRpFv3nNJDOSGWuANcAaSFgD9itzZxwGiebo49blagAmbPmRIPtFRwPTDoX2UgnCm7so29lN1U7UkxxrFlONf7PxEzZ+F7+ClLlhblgD/tbA9vPPgUSzf+HyXA3Arlu+FChY+h1oH1Yvy0PhMdmpchevlETs252rUfSb10yC8ZdgmBvmhjXgbw3scuo6SDj7Zp+eqwF42xWvYfv2Ey6H9lEJwldHTxh+axdlO7up2ol6kmPNYqrxbxKMvwTD3DA3rAF/a2DCJ2+FhLO6b36/C2C1avstbwQcN+skaB+VIHwoO0Xu8pWSiH27czWKfvOaSTD+Egxzw9ywBvytgSmr74KEs7rnglyfAdjukk1mj6t/Yaq1mdA+KsHIpV2W7eymayfqSY41i6nGv0kw/hIMc8PcsAb8rYE91vwcEs7q1ENzNQDbrt5k3vuxm6E9WK3sq4Vhdorc5SslEft252oU/eY1k2D8JRjmhrlhDfhbA9PX/QoTz0kH5moAtrl4k9nxiAuwPQThX0q7zql2Wbazm66dqCc51iymGv8mwfhLMO1yM2nlD8z4o5ebsfsvNn1TDkKbV328xcBiMX7xMmOxaYcZj+mqcU35SqIV7c7NWzMG916IcsD3slPjHK7ULilJjuWdQHR+Tc3Wy2u1jzbGH3mhqdTqaMMWNr5aqxv7DW0z1m2gEeDHVbtSA0m0ot25KH8j8WM+ib2Hwe6nWqufmYNsZzdlu6QkOYYkwIfYXhZVLXu34j/uoFMKK9xJ+i3OuRYrmgA+6u9Gf8epx07n5KkBo49fnwGnDL83OzXO4UqdkhNnLM8EZjF3N5qEc2BkvPmRfxBm0Ky9c43xi5d25REgaxurbe34xdGITudkweFpr9F30Okopzydg2RnO2Wn5MQZSwu+L3HaG7Do67eva/Np/+TGxb4cMHnVnTQBfCnAaQ3E0YhO5+SmAys3mOqUOZABqAbhDdmqcQ5X65ScOGO5JfDiTZm8g7ToAqp9f/YNf3HqkOe80STsdPQKp+Svvba4fvzZC7Tv8tIP+0NE6NortfrCHCQ72ylREPJKYFbzkgRwEnCJ4dgDFuON2qMvH2x9wNE0AHwGwGkNaNWPgSMuRnnlldLE2eOyVeMcrqY1gTQAfgt3Vqagf3fsaTq0vjXH90892Cn5Z5VjXkdvL6P9kRWPJ71O3/7HoAbg3hzkOvsptSYwacKjzif5+E0+aH32ejzr2+/61p4ftL+ieNnl8TFL78XfV1QLl2WvxjlcUWMCsywO7Q1Y9PWj9dnr8UWvD+4vX4OD9leWXB73WqOXfA599G9GDYV75yDX2U+pMYFxEx3nPBJIvgQi4Y/WZ6/HS/hy3O/69z0/aH/F4eisz+mfdx5qAF4sDQ+Pyl6Nc7iixgRmWRC+N1ivrw+tz16P7/X64f7dGhy0v7Lk8ljXWrXRVKbPxwzAUP22HKTazZTqEpjRx/8axUKCcEsQKL5offZ6PIo/4/3uj7zzg/ZXg4e7dTt47vcx8Q9CUw5GlrhR4xyuqi2BWRdK3g3E+TsTLFqfvR7P+upcX8QHwwftr6z5XLre6GOuhg1AX23WzjlItZsptSVQSnDScRIARgCu8UPrs9fjXeeH1/e7f1znB+2vpHyNnt8381TUADzqRolzuqq2BKIF0BrvukF4fYwg0frs9XjWH1Z/xK8zfmh/tfKxy/tjPvVLU5k8CzIA5Vp9bU5S7WZaTQl0URxs8M4Nnjc+aH3e/shLBvn/++dfMnn+R/efd/44v9/9heYHrU8XnB51zcGPfBUSf7vX6tDIIW6UOKerakpgVGKR42gDMN4twaH1iYi/jc1T/O3c6P5Zn27rs9fxResT4e6ksf0LlqH99HJpwvBgTlLtZlpNCUya8Djn93oD+75/tD5pACiAvte45vWh/TW2zSMAACAASURBVBmHo7M6p7rPUZABKNfCu92ocI5X1ZTArAqh+Tqam68X1o7WJw0ADUAv9Elee0T7s5mLXf495oIfQ+K/ZZ/n5SjVbqbWkkBXxZFX43DeeMKE1icNQDycWY/EKU0NoP3pitdbrztw4vWwAShPmjnFjQrneFUtCWxNaFb30xQ9Y7pHlmh90gB0L1fsi97DGu3PrHhcuk7/wWdDBqAahH8slZb9TY5S7WZqLQmUEpx2nKTlN2mh9UkD4Hd+2X+684P2Z1reThS3aqOpTj0UMgCVILzZjQLnfFUVCcz463+bi4cE5DcBofVJA+B3ftl/uvOD9mczF7v6e/Cj30HF35SHwmNylmo302tIoKvCsNclAfmNAVqfNAB+55f9pzs/aH+65PbGtQeOugw1AK8O7LbfDm4UOOerakhgI5EubklAfhMQWp80AH7nl/2nOz9of7rg9NZr9o2cgBmAWn1DzjLtbnoNCWxNaJb3SUB+ExBanzQAfueX/ac7P2h/Zsnl7a41ZvkvTKU2EzMAwcil7hQ45yv7nsB2Sc3yGAnIbwJC65MGwO/8sv905wftzyy5vN21Rp92Myj+oemrhWHOMu1uet8T2C6pWR4jAflNQGh90gD4nV/2n+78oP2ZJZe3u9bA/AtQA/CX0q5zqu4UOOcr+57AdknN8hgJyG8CQuuTBsDv/LL/dOcH7c8subzdtap7LkQNwPdylmi30/uewHZJzfIYCchvAkLrkwbA7/yy/3TnB+3PLLm89VpjPvlDVPztr/+d4VaBc766zwlsTaiL+yQgvwkIrU8aAL/zy/7TnR+0P11weuOao49bBxuASjD83pwl2u30PiewkUiXtyQgvwkIrU8aAL/zy/7TnR+0P11ye9/s01ED8LRb9fXg6j4n0GVxNK5NAvKbgND6pAHwO7/sP935QfuzwcOZ367cYKpT5kAGoBqEN3gg0W6X4G0CHX79b3OxkYD8JiC0PmkA/M4v+093ftD+bObiLP8ePPMbkPhv3letvtCt+npwdV8TmGUxdLoWCchvAkLrkwbA7/yy/3TnB+3PTtyMjA0csQo1AK+UJs4e54FEu12CrwlEkp8klgTkNwGh9UkD4Hd+2X+684P2ZxKuTnJu3/7HogbgXrfK68nVfU1gkmQj55KA/CYgtD5pAPzOL/tPd37Q/kS4OzL2op+ZSq2OGYBauMwTiXa7DC8T2KXX/20BkYD8xgCtTxoAv/PL/tOdH7Q/I0Uc0IDRSz6HiX8QmlFBfS+3yuvJ1X1MoIuiiLomCchvAkLrkwbA7/yy/3TnB+3PKF5GjvfP/ThqAF4sDQ+P8kSi3S7DxwQiyU8aSwLym4DQ+qQB8Du/7D/d+UH7Mylfi+ev2mgq0+djBmCofptb1fXo6t4lEHjqRyyONtcmAflNQGh90gD4nV/2n+78oP2ZhrM7xQye+31M/IPQlIORJR5JtNul+JbATsl1MUYC8puA0PqkAfA7v+w/3flB+zNrTh/4wFWwAeirzdrZrep6dHXfEph1QUjXIwH5TUBofdIA+J1f9p/u/KD9KfFz0vG+maegBuBRj+TZ/VJ8S2DShKPnk4D8JiC0PmkA/M4v+093ftD+RPm7OX7MigdNZfIsyACUa/W17lXXoxl8SmBzMrv1NwnIbwJC65MGwO/8sv905wftzyx5fvAjX4HE3+6lOjRyiEfy7H4pPiUwy2KIey0SkN8EhNYnDYDf+WX/6c4P2p9xeTrOef0Ll6MG4OXShOFB96rr0Qw+JTBOkrM+hwTkNwGh9UkD4Hd+2X+684P2Z5Z8Xt37SMgAlIPwLo+kuTtL8SmBWRZD3Gv1GgFNWvkDM/7o5Wbs/otN35SDoIZBa6cb8b1uALqBMTKHrUFbi+MXLzO2NnutH7XvF8m9jY3L09J5Yy74cRZcdl53VNejWXxJoJRgV+PaGzDu+qev+5UZf+SF+HdkB2EWjda1a9AA6MlXtVY3Ox51kZmxbgONwHU6nhnwRT8GTrwe5pTypJlTPJLm7izFlwS6EnjpunEFVPN5VvzHHQR/PAZuMLTW0sTTAOgxAI382lqlCaABkLi7ebz/4LMhfioH4XOlUmmr7qiuR7M0mi7tbXMSNP6tWdjjrn3zI39lj9zT1mNrHA2APgNgczh+8VI+C6DgWYDWfkt6PxPNWLXRVKceChmAShDe7JEsd28pSRPWen4mCWzzFb3dum5cEdV6nn1dFf5pTMXmgQZApwGwLwdMXnUnTYDnJqBVD5Lez4LnBz/6HVT8TXkoPKZ7quvRTEkT1np+FgnM8xpahT3uuu0b/lpz1kv3aQB0GgBbozsdvYIGgAZAfKPgwOLLUI57dWC3/XbwSJa7txRUDPIU7yzmjiukWs8be8BitDlUx9MA6DUAWx9wNA0ADYBoAPpGTsA4qlbf0D3F9WwmGgAdb7ZJa0D6d5+DNYfip/9tbdMA6DUA/VMPpgGgAehoAMYs/4Wp1GaiHHeJZ7LcveXQABTbAKD51Ry/3Z6HmN8//5Lq/+NmHIKSm+r4tMaXcd3hNZQf0GdxR592M1zffbUw7J7iejZT3glECwCNLzpRoPnVHD8073jV4m/Ny8S5x8EEpzmHRe9P7ftDawvl74HDz0f74y+lXedUPZPl7i0n7wSiBYDGa29Aaf1ofjXHn7biKvUGYMnSK1GCUx0v1TfHu/NIPwpnlB9Q/q7uuRCt7+91T209nCnvBKIFgMZHFXZRjqP51RrfP2mmueeBh9UbgLvv32TsXrTmAV13UfqwqPtA84vw95hP/DPcF9WhkTM8lOXuLSnPBCLJzyq2qI3Z2BeaX63xJy9do178G+9fOPHCy2Gi05rHRh3zNt9H+lH4o3WF8Pjo49Zl0BfD7+2e2no4U54JRJKfVWxUYRflOJpfjfEjx59lnnz2hcIYgCeeecEMH3dWBmSn7xMBRenDou4D5QeEx/tmfwTtiac9lOTuLinPBCLJzyq2qI3Z2BeaX03x9qly+8i/SOLfeBbAmoCTLrqi514OaNQxb/kMwOs4f+UGU52CfcS5GoQ3dFdtPZwNJfjXJSXHr/RNu46iEwuaX9/jt51+sLHv9rdv+CvCa/4NwY+6tXs8dflVm/ds9+57ftD1Fb0/te8PzW9a3h488xt47dfqCz2U5O4uKa8Epk181nHaG1BaP5pf7V+kEyWkPN6d70dA60+qb47n+8wAmt+0fN7//pWoAXilNHH2uO6qrYez5ZXAtInPOq7oBILmlwagO0JZVEOC1l/R+1P7/tD8puXzvv2PRQ3AvR7KcfeXlFcC0yY+6zjtDSitH80vDQANAGJO0PqT6pvjPfgMwEU/w3/htBYu677aejgj2qBZC3K3r1d0AkHzSwNAA0ADkK/I+sxRKL+k4fvRJ9+IPvo3o4L6Xh7KcfeXlEcC0yTdVYzPzZXF2tD80gDQANAA0ABEcRHKL2l4vX/ux1ED8GJpeHhU99XWwxnzSGCapLuKiSrsohxH80sDQANAA0ADEMWHKL8k5vVVG01l+nzMAAzVb/NQivNZUtcT6NlHBaMKuyjH0fzSANAA0ADQAETxIcovSQ3A4Ll3YOIfhKYchCfno7YeztrtBCZNuOvzowq7KMfR/NIA0ADQANAARPEhyi9J+X3gA1fBBqCvNmtnD6U4nyV1O4FJE+76/KjCLspxNL80ADQANAA0AFF8iPJLUn7vm3kKagAezUdpPZ212wlMmnDX50cVdlGOo/mlAaABoAGgAYjiQ5RfkvD7mBUPmsrkWZABKNfqaz2V4nyW1c0EJkl2t86NKuyiHEfzSwNAA0ADQAMQxYcovyTh+cGPfAUSf7vW6tDIIfkoraezdjOBSZLdrXOjCrsox9H80gDQANAA0ABE8SHKL0l4vn/BMtQAvFyaMDzoqRTns6xuJjBJsrt1blRhF+U4ml8aABoAGgAagCg+RPklCc9X9z4SMgDlILwrH5X1eNZuJjBJsrt1blRhF+U4ml8aABoAGgAagCg+RPklLs+POf9HkPhvWed5HktxPkvrVgLjJrrb50UVdlGOo/mlAaABoAGgAYjiQ5Rf4vL9wAmfgQ1AecLw5HxU1uNZu5XAuInu9nlRhV2U42h+aQBoAGgAaACi+BDll7h833/w2ZABKAfhc6VSaSuPpTifpXUrgXET3e3zogq7KMfR/NIA0ADQANAARPEhyi+x+H7VRlOdeihkACpBeHM+Cuv5rF1JoGdf/9tcdFGFXZTjaH5pAGgAaABoAKL4EOWXZi6O+nvwo99Gxd+Uh8JjPJfifJbXjQRGJdaH41GFXZTjaH5pAGgAaABoAKL4EOWXOBowsPgy1AC8OrDbfjvko7Cez9qNBMZJcl7nRBV2UY6j+aUBoAGgAaABiOJDlF/i8H7f8AmYAajVN3guw/ktrxsJjJPkvM6JKuyiHEfzSwNAA0ADQAMQxYcov0i8P2b5L0ylVscMQBBekp/Cej6z6wRKCc57PKqwi3IczS8NAA0ADQANQBQfovwi8f/o025Gxd/01cLQcxnOb3muEyglOO/xqMIuynE0vzQANAA0ADQAUXyI8ovE//2H/z1qAP5c2nVONT+F9Xxm1wmUEpz3eFRhF+U4ml8aABoAGgAagCg+RPlF4v/qngtAA1C/3XMJznd5rhMoJTjv8ajCLspxNL80ADQANAA0AFF8iPJLJ/4f84l/BsV/86//nZGvwno+u8sEdkquL2NRhV2U42h+aQBoAGgAaACi+BDll046MPr49bABqATD7/VcgvNdnssEdkquL2NRhV2U42h+aQBoAGgAaACi+BDll0460Df7I6gBeDpfdVUwu8sEdkquL2NRhV2U42h+aQBoAGgAaACi+BDll0gdWLnBVKfMgQxANQhvUCDB+S7RWQI9/vrf5qKLKuyiHEfzSwNAA0ADQAMQxYcovzRzcfPfg2feBon/5nXV6gvzVVcFs7tKYHMyff47qrCLchzNLw0ADQANAA1AFB+i/BKlDf3vX4kagFdKE2ePUyDB+S7RVQKjEuvb8ajCLspxNL80ADQANAA0AFF8iPJLlB707X8MagDuzVdZlczuKoFRifXteFRhF+U4ml8aABoAGgAagCg+RPmlrR5c+FP8639r4TIlEpzvMp0kUMnr/7b4ogq7KMfR/NIA0ADQABSfJ9LyHcov7QzA6CU3oo/+zaigvle+yqpkdhcJbJdUX4+lLXwtcWh+aQBoAGgAaACi+A7ll3a60D/3XNQAvFgaHh6lRILzXaaLBLZLqq/Hogq7KMfR/NIA0ADQANAARPEhyi9v0IVVG01l+uGYARiq35avqiqaPfMEKnr63xZfVGEX5TiaXxoAGgAagOLzRFq+Q/ml1QAMnnsHJv5BaMpBeLIiCc53qVknsDWhvt9PW/ha4tD80gDQANAA0ABE8R3KL636MPCBNbAB6KvN2jlfVVU0e9YJbE2o7/ejCrsox9H80gDQANAA0ABE8SHKL6360DfzFNQAPKpIfvNfatYJbE2o7/ejCrsox9H80gDQANAA0ABE8SHKL836MGbFg6YyeRZkAMq1+tr8VVXRCrJMYHMytfwdVdhFOY7mlwaABoAGgAYgig9RfmnWicEPfwUSf7uW6tDIIYrkN/+lZpnA5mRq+TuqsItyHM0vDQANAA0ADUAUH6L80qwT/QuWoQbg5dKE4cH8VVXRCrJMYHMytfwdVdhFOY7mlwaABoAGgAYgig9RfmnWiereR0AGoByEdymSXj+WmmUCm5Op5e+owi7KcTS/NAA0ADQANABRfIjyS0Mnxpz/I0j8t6zjPD9UVdEqskpgI5HabqMKuyjH0fzSANAA0ADQAETxIcovDb0YOOEzsAEoTxierEh6/VhqVglsJFLbbVRhF+U4ml8aABoAGgAagCg+RPmloRd9B58NGYByED5XKpW28kNVFa0iqwQ2EqntNqqwi3IczS8NAA0ADQANQBQfovyyWS9WbTTVqYdCBqAShDcrkl1/lppJApV9/W+zSYkq7KIcR/NLA0ADQANAAxDFhyi/WC4ePPtbqPibylD9A/6oqqKVZJHAZkHV9ndUYRflOJpfGgAaABoAGoAoPkT5xerFwFGXogbg1YHd9ttBkez6s9QsEqhN9JvXG1XYRTmO5tf3+G2mzTET5x5nliy90tx9/yaDiJWG2Lvu32ROXrpm857t3n3PD7q+ovRhUfeB5tdycd/wCVgd1+ob/FFUZSvJIoHNgqrt76I2ZmNfaH41xfdPmmlOvPBy88QzLxTOCDz+zPPmhPMvM32T6hhZBqGq+EYd89bPZyFQfhiz7D5TqcE1fYky2fVnuWgCtQl+63qLTixofjXGH3DsmYUyAVb89z/2DFXCnVXdFL0/te8PzfPoU78I13VfLQz9UVRlK0ET2Cqo2u5rb0Bp/Wh+tcafdNEVhXkW4IPnw6+RwiSbVx1I9c3xfJ8ZQOui//C/R2vzz6Vd51SVya4/y0UTqE3wW9dbdAJB86s13r4ccM8DD6s3AfY1/1572r+55oren9r315yrNH9X91yAGoDv+aOmCleSJmnNMa2Cqu2+9gaU1t+cq177+9TlV6k3APYNf72Wt+b9SvXNcd3PADTnOs3f1aGRMxTKrj9LTgN6c4w2wW9db9EJpDlXvfb30Lzj1RsA+wmHXstb836L3p/a99ecqzz+rtZG3uOPmipcCZq0VkHVdl97A0rrR/OrOX7cjEPUG4Btpx9MA3Bdvo9ypR7r5fGc+eFphZLr15LRBGoT/Nb1Fr15+6f2toBo/yIjtD81x9vaLXp/at9fnvVVDcIb/FJThatBE9gqqNrua29Aaf1jD1jc048gaQB0fe6/mY+2PuBoGgDPn/1ozlfX/67VFyqUXL+WjCZNm+C3rlcSUO3j4xcvowF45CWT1gjk/e2AaH9qjt/pAytoAGgAovjrldLE2eP8UlOFq0EJolVQtd3XLvDS+iet/IGp4t+0FdWE3h9PK/yNOBqAfJ5BsDU7eeWdNAA0AFEcc69CufVvyTQAxX+D0Y5HXRTVRIU/3hDytLc0APkYgPFHL6f4ey7+9sEHqh+p42vhMv/UVOGKUidgy3eKa3vE37pe6RF0EcZnrNtgtjvo1PyaNcfvn08r/I04GoDuG4Dt5pxqZqzfQANAAxDJWaOC+l4K5da/JdMAFP8ZAGtirAkYv3hpz70c0BDytLc0AN0zAPZpf/vIn+Kvh5NQ/UgZ/2JpeHiUf2qqcEUpE/BXZ9b6iFrb/SI8wk+yh8mr7jQ7Hb3C2HdY9+9e/J+TTSv8jTgaALcGwNagrUX7hj++5q9H+Bucg+pHyvivK5RaP5ecMgE0AAqenms0qeZbtD4bQp72VrsB0Jx7rt1/Q4D2Z5r4chCe7KeaKlxVmgQ0x2h7xN+6XpKM3yTTXGtp/k4r/I04GgC/64P9m29+0vQkGtNXm7WzQqn1c8loMloFVdt9Eki+BCLhj9ZnQ8jT3tIA+F0fUv1w3G3+0P5MEf+on0qqdFUpEvDXp/9trDbBb10vCcItQaD4ovWZVvgbcTQAftcHWl+Mx/KL9mfS+HKtvlap1Pq57KQJaD2/VVC13ScBYATgGr/Wekt6vyHkaW9pAPyuD9f1x+t3zn/SfkTPrw6NHOKnkipdFZoQbYLful42eOcGzxsftD7TCn8jjgbA7/rIuz57fX60PxPGv1yaMDyoVGr9XHbCBLzu6X8b2yqo2u73egP7vn+0PhtCnvaWBoAGwPceyXN9aH8miS8H4V1+qqjiVSVJQLtztQl+63rzbB7OLYtLu5pLciyt8DfiaADkHLGOexejJL2YwbnnKZZaP5eOJqVVULXdJ3n5TV5ofTaEPO0tDYDf9cH+zTc/aH8miS9PGJ7sp4oqXlWSBLQ7V5vgt66XBJIvgUj4t6u5JMfSCn8jjgbA7/qQ6ofjbvOXpBeRc8tB+FypVNpKsdT6uXQkKTa2VVC13SdBuCUIFF+0PhtCnvaWBsDv+kDri/FYftH+TBB/s58KqnxVCRLwhjcA2lhtgt+6XhIARgCu8UPrM63wN+JoAPyuD9f1x+t3zj/an7Hjh+ofUC61fi4/dgIiftK1VVC13WeDd27wvPFB67Mh5GlvaQD8ro+867PX50f7M2b8qwO77beDnwqqfFUxE9D20b+N1Sb4revt9Qb2ff9ofaYV/kYcDQANgO89kuf60P6MFV+rb1Aus/4uP1YCIh7929hWQdV2P8/m4dyyuKD12RDytLc0AHKOWMe9ixHanzHjL/FXQZWvLGYC+AwAf/7X5EH0aH2mFf5GHA1A74pbHvWubU60P+PE99XCULnM+rv8OAnodI62R/yt69XWcL223k61F2esIeRpb2kAaAB6reeS7DdOD4Ln/Lm065yqvwqqfGVgcvgSAJ8ZcPrMAFqfaYW/EUcDQAOQRBB77Vy0P+X4+u3KJdbv5csJCCOf/rexrY+otd3vtYbVtl+0PhtCnvaWBoAGQFvPdHO9aH9K8dWhkTP8VlDlq5MSII1rE/zW9XazWThXcjGR6k8aTyv8jTgagOQ5Y533DmZS/6Hj1drIe5RLrN/LRxPUKqja7pOs/CYrtD4bQp72lgbA7/pg/+abH7Q/hfin/VbPAqxOSEDHp/9trDbBb10vCSRfApHwR+szrfA34mgA/K4PqX447jZ/aH92iq8G4Q0FkFi/t9ApAXHGWgVV230ShFuCQPGNU4OdzmkIedpbGgC/6wOtL8Zj+e3Ue/BYbWSB3+pZgNWhSdIm+K3rJQFgBOAaP7Q+0wp/I44GwO/6cF1/vH7n/KP92SH+ldLE2eMKILF+b6FDAsSn/21sq6Bqu88G79zgeeOD1mdDyNPe0gD4XR9512evz4/2Z4f4e/1WzoKsrkMCaAD4GX+nn/GPQ55ofaYV/kYcDQANQJw67dVz0P6MjK+FywoisX5vIzIBHb7/vzlG2yP+1vX2auNq2XdzraX5uyHkaW9pAGgAtPRKHutM05NxYkYF9b38Vs6CrC5OMjqd0yqo2u7n0TScM76odKq9OGNphb8RRwMQP1es697DKk4PpjjnxdLw8KiCSKzf20iRnNe9NKBN8FvXS9Lym7TQ+mwIedpbGgC/64P9m29+0P6MiP+636pZoNVFJOB1It/pnFZB1XafBJIvgUj4d6q9OGNphb8RRwPgd31I9cNxt/mL04NJzykH4ckFkli/t5I0Oa3naxP81vWSINwSBIpva70lvd8Q8rS3NAB+1wdaX4zH8pu0H+Oc31ebtbPfqlmg1cVJSKdzWgVV230SAEYArvHrVHtxxtIKfyOOBsDv+nBdf7x+5/zH6cGE5zxSIHn1fysJk/OGlwa0CX7retngnRs8b3zQ+uz1+Lzzx/n97i80P1n3V7lWX+u/ahZohWgCWwVV2320ARjvluDQ+uz1eNan2/rsdXyz7q/q0MghBZJX/7eCJlCb4Leut9cb2Pf9o/XZ6/G+55fr021QMu6vl0sThgf9V80CrRBNYKugartPAvKbgND67PV41rff9a09P1n2VzkI7yqQtOrYCppAbYLful7tDVj09aP12evxRa8P7i9fg5Nxf52nQzULtEo0ga2Cqu0+CSRfApHwR+uz1+MlfDnud/37np8s+6s8YXhygaRVx1bQBGoT/Nb1+t5gvb4+tD57Pb7X64f7d2twsuqvchA+VyqVttKhmgVaJZrAVkHVdp8E4ZYgUHzR+uz1eBR/xvvdH3nnJ7P+qoVfLJCs6tkKmkBtgt+63rwbiPN3Jtj+qQe/4bsn0JrtlXiLHeurc30RHwyfzHppqP4BPapZoJWiCWwVVG33SQAYAbjGb+wBi2kAYv40d2svb33A0TQA1/ld3677x/X1W2su5f1XB3bbb4cCyaqeraRM2F9JWZvgt67XdYPw+hgBj1+87K+1htZqr8Xv9IEVNAA0AE5rIJOeqtU36FHMgq0UTWCroGq7T4HGBNo1fpNW/sBUa3WagITPAljMJq+80yn5u849r+93b9r8oPqxJf6Sgsmqnu2gCdQm+K3rJcn4TzI7HnVRVkTTM9cZf/Ryij8f/TuvAVQ/bHxfLQz1KGbBVoomsFVQtd2nAfDfAMxYt8Fsd9CpPSPeaE9uN+dUM2P9Bufkz97xv3dc5wit1UoQ/rm065xqwWRVz3bQBGoT/Nb1um4QXj8bkrQmYPzipXw5oMNLAfZpf/vIn+KfTc2xd2UcUf2oBPXb9ahlAVeKJrBVULXdZ5PLTe4TRpNX3Wl2OnqFse9w7999Ts8/K2AxsFjYN/zxNX9dtexTX6VdC6of1aGRMwooq3q2VAnCl5Ekjl25wWgT/eb1zriWpJG2+RnH2mEN9G4NTF/3K9iAV2sj79GjlgVcaSUIX0AMwJhl96k2ANPW924Dk7yZe9YAayBtDeyx5uegARj5XQElVdeWKkH4BGQA/v5u1QZgKg0A3yzGd4uzBlgDiWtgyuq7IANQDkbu0aWWBVxtJQgfRgzA4Om3qjYAk9fxEUDaRwCMY+2wBnq3BiZ84muQAagE4ZcLKKm6tlQOwjsRAzD6uHWqDcBua3u3gUnezD1rgDWQtgZ2OXUdZADKQ+HVutSygKstB+E6xAD0H/ox1QbgnWtIAGkJgHGsHdZA79bA9vPPgQxAJah/vICSqmtL1aHwdMQAVKYdZsau2qjWBIy/vHcbmOTN3LMGWAOpauDajWZgxmGQAagGIwfrUssCrrY6VD8QMgBBaAbPuV2tARi3mgSQigD4pqnEb5oizuy1otRAsPQ7kPhbzRmYcuCOBZRUZVuaOvymShD+D2IC+hcsU2sA7HcC8I2AJOaiEDP3wVruRg2gv89RDsLnlCllcZdbCcKHEANQ3WOuGbPiQbUm4F1XkTS6QRqcg3XGGtBfA9OvedAMTJuLPQNQC79bXEVVtrNyEK5BDICN1fxpgLdcpr8pSazMIWuANdCNGthlyVpMISDplAAABmVJREFU/IPQlGsjH1Imk8VdbnWofihqACrT56t+FoAvA5A8u0GenIN1prkGpl19vxmYcThsAPp2C99eXEXVtrN3DPdVgvBF1AQMHLFK7csAO19JYtJMTFw765c14L4GdjrmU7D4V4JwkzaJLPx6q0F4A2oAKpMONIPn3qHSBGyzepOZxh8G4jvb+ekG1gBroG0N1FZ831QnHZiBAahfVHhB1bbBUbX6frABCEJT3fsIM2b5/SpNAL8UyP0jCD5KI8asAX01MG3tA2bsfkdmIP7hf/dPCsdr08deWO9WlaHw37MwAX0Hn6Xyy4G2Xb3J7MFnAdq6f5K2PtJmzpizLGpgxrUbzZvnnpGF+JtKUP9WL4ipyj2Wg/DkLAyAvcbA/AtUPgvw9itIGlmQBq/BOmINFKAGrt1odnz/+RmJf2iqQThHpTj2xKKnTi1XgvCprExA/7xPmLGrHlJnBGrXFKBx+Tomn8lgDbAGgBqwj/zHH3lBZuJfCeoPlEqlrXpCS7Vusjo0ckZWBsBep2/OmereE/CmSzeZ6XwpgOQJkCcf/dJEa64B+3G/7J72DzebCPu181p1sXfW/dpHAn+bpQmo7vV+dZ8O4I8EkcA1EzjXzvpNWwP23f5j9j0iw0f+m5/6/1HviKjynVaHwllZGoDN16rNNP0Ll6t6NoBfEUwSTUuijGPtaKuB6df80rz9hMtMdXIWH/V77VH/Fh3573It3F25LPbW8itD9dsyNwFBaOw3Bo4+7ho13xr43qtJZNqIjOtlzbIG4teA/W7/XU65JpNv+IvQjNW9pZ4F2G1/bXinShC+EJFQ+Okh+wNC/QuWmsFzvuv1Rwa3vniTGVobv5lIPMSKNcAa8L4Grt1o7E/62l/1G5h2KMznHXTiN6W99uovgCT23ha2/EbAqx2Sm03hTJtn+g89Z/MPCg2efqsZ88kfmjHL7jNjV27w4hME1gS8h78YyDcF8k2BrAFlNTBj3Qazx5r7zOSLf2gmfPJWs8up68z2888xA9PnZcPd9lnd6P8vl2vDe/aechZox+VaeEWHBHdKPseiG4PYEBvWAGug0DVQHgpPLZAU9uhWpk4tV4PwRzQBHZ1uoRuZuWfuWQOsgWQ1MPKFHlXMAm578vA2lSDcmKwA2DDEizXAGmAN9FoNlGvh3aV3DPcVUAl7d0uDtVlvyeq3AnqtIbhfigBrgDXQEzUwFP6i9J59xvSuUhZ459Wh8J2VYOTxnihkvj7JlzVYA6wB1kCSGthYmjh7XIElkFsbPWH4rZVafQNNAB/RsAZYA6wB1sCWGvhZaerwm6iQvYDA1Jlb842BbHySP2uANcAaqAQjt5QmLKr0gvRxjw0E7C8H1sLLK0Ho/nsC+DRckqfheC7rhTXAGuhGDfx3ZWjkk/yFv4Yo9uDtli8LcvaNgXyEwUcYrAHWAGvAsxqohU+OmjiyTw9KHrfcikD/pHB8JQi/zib1rEn5KKgbj4I4B+usl2rg1UpQv7E0debWrTrA+z2OQN/E+kglCH9NI0AjwBpgDbAGClcDvxw1FO7d4zLH7XdEYNc51WpQ/3AlCJ8iARSOAHrpkQ73ykf2rIHXauDRcq1+XKm07G86cj8HicBfEZiwqFIeqp9YCcLf0AjQCLAGWAOsAXU18GClVl9I4f+rqvGPNAiUg5Gp5Vp9bXUofJ4koI4E+CiIj4RZA71TAy9Ug/r1oybN3Jfv7k+jdoyJRmDzywPhnC0fH/xlJQj/h4aAhoA1wBpgDeRWA/9dCcKfVYZGVvXVwrC0aNHfRhM4R4hAlghMnD2urzZSL9fC0+wzBJWh+j9VgvBXlSB8rBKE9qOFL5MYciMGPurrnUd9zHVxc/3/tjzzajn1l5Va+F37E+/lYGTJqGDkgNKE4cEsKZ3XIgJEgAgQASJABIgAESACRIAIEAEiQASIABEgAkSACBABIkAEiAARIAJEgAgQASJABIgAESACRIAIEAEiQASIABEgAkSACBABIkAEiAARIAJEgAgQASJABIgAESACRIAIEAEiQASIABEgAkSACBABIkAEiAARIAJEgAgQASJABIgAESACRIAIEAEiQASIABEgAkSACBABIkAEiAARIAJEgAgQASJABIgAESACRIAIEAEiQASIABEgAkSACBABIkAEiAARIAJEgAgQASJABIhA3gj8f36RxiQv+EuOAAAAAElFTkSuQmCC;" vertex="1" parent="1">
          <mxGeometry x="2000" y="160" width="512" height="512" as="geometry" />
        </mxCell>
        <mxCell id="ThVksF6ZGvTpuZDphex1-8" value="" style="shape=image;verticalLabelPosition=bottom;labelBackgroundColor=default;verticalAlign=top;aspect=fixed;imageAspect=0;image=https://cdn-icons-png.flaticon.com/512/5650/5650319.png;" vertex="1" parent="1">
          <mxGeometry x="1950" y="400" width="272" height="272" as="geometry" />
        </mxCell>
        <mxCell id="ThVksF6ZGvTpuZDphex1-9" value="" style="endArrow=classic;html=1;rounded=0;strokeWidth=12;exitX=1;exitY=0.5;exitDx=0;exitDy=0;" edge="1" parent="1" source="ThVksF6ZGvTpuZDphex1-4" target="ThVksF6ZGvTpuZDphex1-7">
          <mxGeometry width="50" height="50" relative="1" as="geometry">
            <mxPoint x="1654" y="790" as="sourcePoint" />
            <mxPoint x="2022" y="790" as="targetPoint" />
          </mxGeometry>
        </mxCell>
        <mxCell id="ThVksF6ZGvTpuZDphex1-10" value="Filtered patients" style="text;html=1;strokeColor=none;fillColor=none;align=center;verticalAlign=middle;whiteSpace=wrap;rounded=0;fontSize=100;" vertex="1" parent="1">
          <mxGeometry x="1901" y="-170" width="710" height="230" as="geometry" />
        </mxCell>
      </root>
    </mxGraphModel>
  </diagram>
</mxfile>
